# MagicaVoxel @ Ephtracy

# group
o 

# material
mtllib bush_8x8_v2.mtl
usemtl palette

# normals
vn -1 0 0
vn 1 0 0
vn 0 0 1
vn 0 0 -1
vn 0 -1 0
vn 0 1 0

# texcoords
vt 0.0292969 0.5
vt 0.142578 0.5
vt 0.896484 0.5
vt 0.904297 0.5

# verts
v 0 2 -0.3
v 0 2 -0.6
v 0 2 -0.7
v 0 2.1 -0.2
v 0 2.1 -0.3
v 0 2.2 -0.1
v 0 2.2 -0.2
v 0 2.2 -0.3
v 0 2.2 -0.6
v 0 2.3 -0.2
v 0 2.3 -0.3
v 0 2.4 -0.1
v 0 2.4 -0.2
v 0 2.4 -0.3
v 0 2.4 -0.7
v 0.1 2 0
v 0.1 2 -0.3
v 0.1 2 -0.7
v 0.1 2 -0.8
v 0.1 2.1 -0.2
v 0.1 2.1 -0.3
v 0.1 2.2 0
v 0.1 2.2 -0.1
v 0.1 2.2 -0.2
v 0.1 2.3 -0.2
v 0.1 2.3 -0.3
v 0.1 2.4 -0.1
v 0.1 2.4 -0.2
v 0.1 2.4 -0.3
v 0.1 2.4 -0.5
v 0.1 2.4 -0.7
v 0.1 2.4 -0.8
v 0.1 2.5 -0.3
v 0.1 2.5 -0.4
v 0.1 2.6 0
v 0.1 2.6 -0.1
v 0.1 2.6 -0.3
v 0.1 2.6 -0.4
v 0.1 2.6 -0.5
v 0.2 2.4 -0.6
v 0.2 2.4 -0.8
v 0.2 2.6 0
v 0.2 2.6 -0.1
v 0.2 2.6 -0.4
v 0.2 2.6 -0.5
v 0.2 2.6 -0.6
v 0.2 2.6 -0.8
v 0.2 2.7 0
v 0.2 2.7 -0.1
v 0.2 2.7 -0.4
v 0.2 2.7 -0.5
v 0.3 2.6 -0.3
v 0.3 2.6 -0.4
v 0.3 2.7 -0.3
v 0.3 2.7 -0.4
v 0.2 2.3 -0.5
v 0.2 2.3 -0.6
v 0.2 2.4 -0.5
v 0.2 2.4 -0.6
v 0.5 2.3 -0.1
v 0.5 2.3 -0.2
v 0.5 2.4 -0.1
v 0.5 2.4 -0.2
v 0.5 2.6 -0.3
v 0.5 2.6 -0.4
v 0.5 2.6 -0.5
v 0.5 2.7 -0.3
v 0.5 2.7 -0.4
v 0.5 2.7 -0.5
v 0.6 2 0
v 0.6 2 -0.4
v 0.6 2 -0.7
v 0.6 2 -0.8
v 0.6 2.1 -0.1
v 0.6 2.1 -0.4
v 0.6 2.3 0
v 0.6 2.3 -0.1
v 0.6 2.3 -0.2
v 0.6 2.3 -0.3
v 0.6 2.3 -0.6
v 0.6 2.3 -0.7
v 0.6 2.4 -0.2
v 0.6 2.4 -0.3
v 0.6 2.4 -0.5
v 0.6 2.4 -0.6
v 0.6 2.4 -0.7
v 0.6 2.6 -0.3
v 0.6 2.6 -0.5
v 0.6 2.6 -0.6
v 0.6 2.6 -0.8
v 0.6 2.7 0
v 0.6 2.7 -0.1
v 0.7 2.1 -0.3
v 0.7 2.1 -0.4
v 0.7 2.2 -0.1
v 0.7 2.2 -0.2
v 0.7 2.2 -0.3
v 0.7 2.2 -0.4
v 0.7 2.3 -0.1
v 0.7 2.3 -0.2
v 0.7 2.3 -0.3
v 0.7 2.3 -0.4
v 0.7 2.3 -0.5
v 0.7 2.4 -0.3
v 0.7 2.4 -0.5
v 0.8 2 -0.4
v 0.8 2 -0.7
v 0.8 2.1 -0.1
v 0.8 2.1 -0.3
v 0.8 2.2 -0.1
v 0.8 2.2 -0.3
v 0.8 2.2 -0.4
v 0.8 2.2 -0.6
v 0.8 2.3 -0.4
v 0.8 2.3 -0.6
v 0.8 2.3 -0.7
v 0.1 2 0
v 0.1 2.2 0
v 0.1 2.6 0
v 0.2 2.2 0
v 0.2 2.6 0
v 0.2 2.7 0
v 0.5 2.3 0
v 0.5 2.7 0
v 0.6 2 0
v 0.6 2.3 0
v 0.6 2.7 0
v 0 2.2 -0.1
v 0 2.4 -0.1
v 0.1 2.2 -0.1
v 0.1 2.4 -0.1
v 0.6 2.1 -0.1
v 0.6 2.3 -0.1
v 0.7 2.2 -0.1
v 0.7 2.3 -0.1
v 0.8 2.1 -0.1
v 0.8 2.2 -0.1
v 0 2.1 -0.2
v 0 2.2 -0.2
v 0.1 2.1 -0.2
v 0.1 2.2 -0.2
v 0.5 2.3 -0.2
v 0.5 2.4 -0.2
v 0.6 2.3 -0.2
v 0.6 2.4 -0.2
v 0 2 -0.3
v 0 2.1 -0.3
v 0 2.3 -0.3
v 0 2.4 -0.3
v 0.1 2 -0.3
v 0.1 2.1 -0.3
v 0.1 2.3 -0.3
v 0.1 2.4 -0.3
v 0.1 2.5 -0.3
v 0.1 2.6 -0.3
v 0.2 2.4 -0.3
v 0.2 2.5 -0.3
v 0.2 2.6 -0.3
v 0.3 2.6 -0.3
v 0.3 2.7 -0.3
v 0.5 2.6 -0.3
v 0.5 2.7 -0.3
v 0.6 2.3 -0.3
v 0.6 2.4 -0.3
v 0.6 2.6 -0.3
v 0.7 2.3 -0.3
v 0.7 2.4 -0.3
v 0.2 2.6 -0.4
v 0.2 2.7 -0.4
v 0.3 2.6 -0.4
v 0.3 2.7 -0.4
v 0.6 2 -0.4
v 0.6 2.1 -0.4
v 0.7 2.1 -0.4
v 0.7 2.2 -0.4
v 0.7 2.3 -0.4
v 0.8 2 -0.4
v 0.8 2.2 -0.4
v 0.8 2.3 -0.4
v 0.2 2.3 -0.6
v 0.2 2.4 -0.6
v 0.2 2.6 -0.6
v 0.3 2.4 -0.6
v 0.3 2.6 -0.6
v 0.6 2.3 -0.6
v 0.6 2.4 -0.6
v 0.6 2.6 -0.6
v 0.1 2.4 -0.1
v 0.1 2.6 -0.1
v 0.2 2.4 -0.1
v 0.2 2.6 -0.1
v 0.2 2.7 -0.1
v 0.5 2.3 -0.1
v 0.5 2.4 -0.1
v 0.5 2.7 -0.1
v 0.6 2.3 -0.1
v 0.6 2.7 -0.1
v 0 2.3 -0.2
v 0 2.4 -0.2
v 0.1 2.3 -0.2
v 0.1 2.4 -0.2
v 0.7 2.1 -0.3
v 0.7 2.2 -0.3
v 0.8 2.1 -0.3
v 0.8 2.2 -0.3
v 0.1 2.4 -0.5
v 0.1 2.6 -0.5
v 0.2 2.3 -0.5
v 0.2 2.4 -0.5
v 0.2 2.6 -0.5
v 0.2 2.7 -0.5
v 0.3 2.3 -0.5
v 0.3 2.4 -0.5
v 0.3 2.6 -0.5
v 0.3 2.7 -0.5
v 0.5 2.6 -0.5
v 0.5 2.7 -0.5
v 0.6 2.3 -0.5
v 0.6 2.4 -0.5
v 0.6 2.6 -0.5
v 0.7 2.3 -0.5
v 0.7 2.4 -0.5
v 0 2 -0.7
v 0 2.4 -0.7
v 0.1 2 -0.7
v 0.1 2.4 -0.7
v 0.6 2 -0.7
v 0.6 2.3 -0.7
v 0.8 2 -0.7
v 0.8 2.3 -0.7
v 0.1 2 -0.8
v 0.1 2.4 -0.8
v 0.2 2.4 -0.8
v 0.2 2.6 -0.8
v 0.3 2 -0.8
v 0.3 2.6 -0.8
v 0.6 2 -0.8
v 0.6 2.6 -0.8
v 0.1 2 0
v 0.6 2 0
v 0 2 -0.3
v 0.1 2 -0.3
v 0.6 2 -0.4
v 0.8 2 -0.4
v 0 2 -0.6
v 0.3 2 -0.6
v 0 2 -0.7
v 0.1 2 -0.7
v 0.6 2 -0.7
v 0.8 2 -0.7
v 0.1 2 -0.8
v 0.3 2 -0.8
v 0.6 2 -0.8
v 0.6 2.1 -0.1
v 0.8 2.1 -0.1
v 0 2.1 -0.2
v 0.1 2.1 -0.2
v 0 2.1 -0.3
v 0.1 2.1 -0.3
v 0.7 2.1 -0.3
v 0.8 2.1 -0.3
v 0.6 2.1 -0.4
v 0.7 2.1 -0.4
v 0 2.2 -0.1
v 0.1 2.2 -0.1
v 0 2.2 -0.2
v 0.1 2.2 -0.2
v 0.7 2.2 -0.1
v 0.8 2.2 -0.1
v 0.7 2.2 -0.2
v 0.7 2.2 -0.3
v 0.8 2.2 -0.3
v 0.5 2.3 -0.1
v 0.6 2.3 -0.1
v 0.7 2.3 -0.1
v 0 2.3 -0.2
v 0.1 2.3 -0.2
v 0.5 2.3 -0.2
v 0.6 2.3 -0.2
v 0.7 2.3 -0.2
v 0 2.3 -0.3
v 0.1 2.3 -0.3
v 0.6 2.3 -0.3
v 0.7 2.3 -0.3
v 0.7 2.3 -0.4
v 0.8 2.3 -0.4
v 0.2 2.3 -0.5
v 0.3 2.3 -0.5
v 0.6 2.3 -0.5
v 0.7 2.3 -0.5
v 0.2 2.3 -0.6
v 0.6 2.3 -0.6
v 0.8 2.3 -0.6
v 0.6 2.3 -0.7
v 0.8 2.3 -0.7
v 0 2.4 -0.1
v 0.1 2.4 -0.1
v 0.2 2.4 -0.1
v 0.5 2.4 -0.1
v 0 2.4 -0.2
v 0.1 2.4 -0.2
v 0.5 2.4 -0.2
v 0.6 2.4 -0.2
v 0 2.4 -0.3
v 0.1 2.4 -0.3
v 0.2 2.4 -0.3
v 0.6 2.4 -0.3
v 0.7 2.4 -0.3
v 0.1 2.4 -0.5
v 0.2 2.4 -0.5
v 0.6 2.4 -0.5
v 0.7 2.4 -0.5
v 0.1 2.4 -0.6
v 0.2 2.4 -0.6
v 0 2.4 -0.7
v 0.1 2.4 -0.7
v 0.1 2.4 -0.8
v 0.2 2.4 -0.8
v 0.1 2.6 0
v 0.2 2.6 0
v 0.1 2.6 -0.1
v 0.2 2.6 -0.1
v 0.1 2.6 -0.3
v 0.2 2.6 -0.3
v 0.3 2.6 -0.3
v 0.5 2.6 -0.3
v 0.6 2.6 -0.3
v 0.1 2.6 -0.4
v 0.2 2.6 -0.4
v 0.3 2.6 -0.4
v 0.5 2.6 -0.4
v 0.1 2.6 -0.5
v 0.2 2.6 -0.5
v 0.5 2.6 -0.5
v 0.6 2.6 -0.5
v 0.2 2.6 -0.6
v 0.3 2.6 -0.6
v 0.6 2.6 -0.6
v 0.2 2.6 -0.8
v 0.3 2.6 -0.8
v 0.6 2.6 -0.8
v 0.2 2.7 0
v 0.5 2.7 0
v 0.6 2.7 0
v 0.2 2.7 -0.1
v 0.5 2.7 -0.1
v 0.6 2.7 -0.1
v 0.3 2.7 -0.3
v 0.5 2.7 -0.3
v 0.2 2.7 -0.4
v 0.3 2.7 -0.4
v 0.5 2.7 -0.4
v 0.2 2.7 -0.5
v 0.3 2.7 -0.5
v 0.5 2.7 -0.5

# faces
f 5/4/1 2/4/1 1/4/1
f 7/4/1 5/4/1 4/4/1
f 8/4/1 2/4/1 5/4/1
f 8/4/1 5/4/1 7/4/1
f 9/3/1 3/3/1 2/3/1
f 9/4/1 2/4/1 8/4/1
f 10/4/1 8/4/1 7/4/1
f 10/4/1 7/4/1 6/4/1
f 11/3/1 9/3/1 8/3/1
f 11/4/1 8/4/1 10/4/1
f 12/4/1 10/4/1 6/4/1
f 13/4/1 10/4/1 12/4/1
f 14/3/1 9/3/1 11/3/1
f 15/3/1 3/3/1 9/3/1
f 15/3/1 9/3/1 14/3/1
f 20/4/1 17/4/1 16/4/1
f 21/4/1 17/4/1 20/4/1
f 22/4/1 20/4/1 16/4/1
f 23/4/1 20/4/1 22/4/1
f 24/4/1 20/4/1 23/4/1
f 27/3/1 23/3/1 22/3/1
f 28/4/1 26/4/1 25/4/1
f 29/4/1 26/4/1 28/4/1
f 31/3/1 19/3/1 18/3/1
f 32/3/1 19/3/1 31/3/1
f 33/1/1 30/1/1 29/1/1
f 34/1/1 30/1/1 33/1/1
f 35/3/1 27/3/1 22/3/1
f 36/3/1 27/3/1 35/3/1
f 37/2/1 34/2/1 33/2/1
f 38/1/1 30/1/1 34/1/1
f 38/2/1 34/2/1 37/2/1
f 39/1/1 30/1/1 38/1/1
f 46/3/1 41/3/1 40/3/1
f 47/3/1 41/3/1 46/3/1
f 48/4/1 43/4/1 42/4/1
f 49/4/1 43/4/1 48/4/1
f 50/4/1 45/4/1 44/4/1
f 51/4/1 45/4/1 50/4/1
f 54/4/1 53/4/1 52/4/1
f 55/4/1 53/4/1 54/4/1
f 56/4/2 57/4/2 58/4/2
f 58/4/2 57/4/2 59/4/2
f 60/3/2 61/3/2 62/3/2
f 62/3/2 61/3/2 63/3/2
f 64/4/2 65/4/2 67/4/2
f 65/3/2 66/3/2 68/3/2
f 67/4/2 65/4/2 68/4/2
f 68/3/2 66/3/2 69/3/2
f 70/4/2 71/4/2 74/4/2
f 74/4/2 71/4/2 75/4/2
f 70/4/2 74/4/2 76/4/2
f 76/4/2 74/4/2 77/4/2
f 72/4/2 73/4/2 81/4/2
f 78/3/2 79/3/2 82/3/2
f 82/3/2 79/3/2 83/3/2
f 80/3/2 81/3/2 85/3/2
f 81/4/2 73/4/2 86/4/2
f 85/3/2 81/3/2 86/3/2
f 83/4/2 84/4/2 87/4/2
f 87/4/2 84/4/2 88/4/2
f 85/4/2 86/4/2 89/4/2
f 86/4/2 73/4/2 90/4/2
f 89/4/2 86/4/2 90/4/2
f 76/3/2 77/3/2 91/3/2
f 91/3/2 77/3/2 92/3/2
f 93/4/2 94/4/2 97/4/2
f 97/4/2 94/4/2 98/4/2
f 95/4/2 96/4/2 99/4/2
f 96/3/2 97/3/2 100/3/2
f 99/4/2 96/4/2 100/4/2
f 97/3/2 98/3/2 100/3/2
f 100/3/2 98/3/2 101/3/2
f 101/3/2 98/3/2 102/3/2
f 101/3/2 102/3/2 104/3/2
f 102/3/2 103/3/2 104/3/2
f 104/3/2 103/3/2 105/3/2
f 108/4/2 109/4/2 110/4/2
f 110/4/2 109/4/2 111/4/2
f 106/4/2 107/4/2 112/4/2
f 112/4/2 107/4/2 113/4/2
f 112/3/2 113/3/2 114/3/2
f 113/4/2 107/4/2 115/4/2
f 114/3/2 113/3/2 115/3/2
f 115/4/2 107/4/2 116/4/2
f 120/4/3 118/4/3 117/4/3
f 120/3/3 119/3/3 118/3/3
f 121/3/3 119/3/3 120/3/3
f 123/4/3 121/4/3 120/4/3
f 123/4/3 122/4/3 121/4/3
f 124/4/3 122/4/3 123/4/3
f 125/4/3 120/4/3 117/4/3
f 125/4/3 123/4/3 120/4/3
f 126/3/3 124/3/3 123/3/3
f 126/4/3 123/4/3 125/4/3
f 127/3/3 124/3/3 126/3/3
f 130/4/3 129/4/3 128/4/3
f 131/4/3 129/4/3 130/4/3
f 134/4/3 133/4/3 132/4/3
f 135/4/3 133/4/3 134/4/3
f 136/4/3 134/4/3 132/4/3
f 137/4/3 134/4/3 136/4/3
f 140/4/3 139/4/3 138/4/3
f 141/4/3 139/4/3 140/4/3
f 144/3/3 143/3/3 142/3/3
f 145/3/3 143/3/3 144/3/3
f 150/4/3 147/4/3 146/4/3
f 151/4/3 147/4/3 150/4/3
f 152/3/3 149/3/3 148/3/3
f 153/3/3 149/3/3 152/3/3
f 156/1/3 154/1/3 153/1/3
f 157/2/3 155/2/3 154/2/3
f 157/1/3 154/1/3 156/1/3
f 158/2/3 155/2/3 157/2/3
f 159/4/3 157/4/3 156/4/3
f 159/4/3 158/4/3 157/4/3
f 161/4/3 159/4/3 156/4/3
f 161/4/3 160/4/3 159/4/3
f 162/4/3 160/4/3 161/4/3
f 164/4/3 161/4/3 156/4/3
f 165/4/3 161/4/3 164/4/3
f 166/3/3 164/3/3 163/3/3
f 167/3/3 164/3/3 166/3/3
f 170/4/3 169/4/3 168/4/3
f 171/4/3 169/4/3 170/4/3
f 174/4/3 173/4/3 172/4/3
f 177/4/3 174/4/3 172/4/3
f 177/4/3 175/4/3 174/4/3
f 178/3/3 176/3/3 175/3/3
f 178/4/3 175/4/3 177/4/3
f 179/3/3 176/3/3 178/3/3
f 183/3/3 181/3/3 180/3/3
f 183/3/3 182/3/3 181/3/3
f 184/3/3 182/3/3 183/3/3
f 185/3/3 183/3/3 180/3/3
f 186/4/3 184/4/3 183/4/3
f 186/3/3 183/3/3 185/3/3
f 187/4/3 184/4/3 186/4/3
f 188/3/4 189/3/4 190/3/4
f 190/3/4 189/3/4 191/3/4
f 190/4/4 191/4/4 194/4/4
f 191/4/4 192/4/4 194/4/4
f 194/4/4 192/4/4 195/4/4
f 193/3/4 194/3/4 196/3/4
f 194/3/4 195/3/4 196/3/4
f 196/3/4 195/3/4 197/3/4
f 198/4/4 199/4/4 200/4/4
f 200/4/4 199/4/4 201/4/4
f 202/4/4 203/4/4 204/4/4
f 204/4/4 203/4/4 205/4/4
f 206/1/4 207/1/4 209/1/4
f 209/1/4 207/1/4 210/1/4
f 208/4/4 209/4/4 212/4/4
f 210/4/4 211/4/4 212/4/4
f 209/4/4 210/4/4 212/4/4
f 212/4/4 211/4/4 213/4/4
f 213/4/4 211/4/4 214/4/4
f 214/4/4 211/4/4 215/4/4
f 213/4/4 214/4/4 216/4/4
f 214/3/4 215/3/4 216/3/4
f 216/3/4 215/3/4 217/3/4
f 212/3/4 213/3/4 218/3/4
f 213/4/4 216/4/4 219/4/4
f 218/3/4 213/3/4 219/3/4
f 219/4/4 216/4/4 220/4/4
f 218/3/4 219/3/4 221/3/4
f 221/3/4 219/3/4 222/3/4
f 223/3/4 224/3/4 225/3/4
f 225/3/4 224/3/4 226/3/4
f 227/4/4 228/4/4 229/4/4
f 229/4/4 228/4/4 230/4/4
f 231/3/4 232/3/4 233/3/4
f 231/3/4 233/3/4 235/3/4
f 233/3/4 234/3/4 235/3/4
f 235/3/4 234/3/4 236/3/4
f 235/4/4 236/4/4 237/4/4
f 237/4/4 236/4/4 238/4/4
f 242/4/5 240/4/5 239/4/5
f 243/4/5 240/4/5 242/4/5
f 243/4/5 242/4/5 241/4/5
f 245/4/5 243/4/5 241/4/5
f 245/4/5 244/4/5 243/4/5
f 246/4/5 244/4/5 245/4/5
f 247/3/5 246/3/5 245/3/5
f 248/3/5 246/3/5 247/3/5
f 249/4/5 244/4/5 246/4/5
f 250/4/5 244/4/5 249/4/5
f 251/3/5 246/3/5 248/3/5
f 252/4/5 249/4/5 246/4/5
f 252/3/5 246/3/5 251/3/5
f 253/4/5 249/4/5 252/4/5
f 258/4/5 257/4/5 256/4/5
f 259/4/5 257/4/5 258/4/5
f 260/4/5 255/4/5 254/4/5
f 261/4/5 255/4/5 260/4/5
f 262/4/5 260/4/5 254/4/5
f 263/4/5 260/4/5 262/4/5
f 266/4/5 265/4/5 264/4/5
f 267/4/5 265/4/5 266/4/5
f 268/4/6 269/4/6 270/4/6
f 270/4/6 269/4/6 271/4/6
f 271/4/6 269/4/6 272/4/6
f 273/4/6 274/4/6 278/4/6
f 274/4/6 275/4/6 278/4/6
f 278/4/6 275/4/6 279/4/6
f 279/4/6 275/4/6 280/4/6
f 276/4/6 277/4/6 281/4/6
f 281/4/6 277/4/6 282/4/6
f 279/3/6 280/3/6 283/3/6
f 283/3/6 280/3/6 284/3/6
f 285/3/6 286/3/6 290/3/6
f 288/4/6 289/4/6 291/4/6
f 287/4/6 288/4/6 291/4/6
f 289/3/6 290/3/6 292/3/6
f 291/4/6 289/4/6 292/4/6
f 290/3/6 286/3/6 293/3/6
f 292/3/6 290/3/6 293/3/6
f 292/4/6 293/4/6 294/4/6
f 294/4/6 293/4/6 295/4/6
f 296/4/6 297/4/6 300/4/6
f 297/4/6 298/4/6 300/4/6
f 300/4/6 298/4/6 301/4/6
f 298/3/6 299/3/6 302/3/6
f 301/4/6 298/4/6 305/4/6
f 298/3/6 302/3/6 306/3/6
f 302/3/6 303/3/6 306/3/6
f 305/4/6 298/4/6 306/4/6
f 306/3/6 303/3/6 307/3/6
f 304/3/6 305/3/6 309/3/6
f 307/3/6 308/3/6 311/3/6
f 311/3/6 308/3/6 312/3/6
f 309/4/6 310/4/6 313/4/6
f 304/3/6 309/3/6 313/3/6
f 313/4/6 310/4/6 314/4/6
f 304/3/6 313/3/6 315/3/6
f 313/3/6 314/3/6 315/3/6
f 315/3/6 314/3/6 316/3/6
f 316/3/6 314/3/6 317/3/6
f 317/3/6 314/3/6 318/3/6
f 319/3/6 320/3/6 321/3/6
f 321/3/6 320/3/6 322/3/6
f 323/2/6 324/2/6 328/2/6
f 324/4/6 325/4/6 329/4/6
f 328/2/6 324/2/6 329/2/6
f 329/4/6 325/4/6 330/4/6
f 326/4/6 327/4/6 331/4/6
f 328/1/6 329/1/6 332/1/6
f 332/1/6 329/1/6 333/1/6
f 331/4/6 327/4/6 334/4/6
f 334/4/6 327/4/6 335/4/6
f 336/3/6 337/3/6 339/3/6
f 337/4/6 338/4/6 340/4/6
f 339/3/6 337/3/6 340/3/6
f 340/4/6 338/4/6 341/4/6
f 342/4/6 343/4/6 345/4/6
f 343/3/6 344/3/6 346/3/6
f 345/4/6 343/4/6 346/4/6
f 346/3/6 344/3/6 347/3/6
f 348/4/6 349/4/6 351/4/6
f 351/4/6 349/4/6 352/4/6
f 350/4/6 351/4/6 353/4/6
f 351/3/6 352/3/6 354/3/6
f 353/4/6 351/4/6 354/4/6
f 354/3/6 352/3/6 355/3/6
