# MagicaVoxel @ Ephtracy

# group
o 

# material
mtllib rock_8x8_v1.mtl
usemtl palette

# normals
vn -1 0 0
vn 1 0 0
vn 0 0 1
vn 0 0 -1
vn 0 -1 0
vn 0 1 0

# texcoords
vt 0.337891 0.5
vt 0.505859 0.5

# verts
v 0.1 2 -0.4
v 0.1 2 -0.7
v 0.1 2.2 -0.4
v 0.1 2.2 -0.7
v 0.2 2.2 -0.5
v 0.2 2.2 -0.6
v 0.2 2.3 -0.5
v 0.2 2.3 -0.6
v 0.4 2 -0.1
v 0.4 2 -0.4
v 0.4 2.2 -0.1
v 0.4 2.2 -0.2
v 0.4 2.3 -0.2
v 0.4 2.3 -0.4
v 0.5 2.2 -0.1
v 0.5 2.2 -0.2
v 0.5 2.3 -0.1
v 0.5 2.3 -0.2
v 0.2 2.1 -0.4
v 0.2 2.1 -0.5
v 0.2 2.2 -0.4
v 0.2 2.2 -0.5
v 0.3 2 -0.4
v 0.3 2 -0.6
v 0.3 2 -0.7
v 0.3 2.1 -0.4
v 0.3 2.1 -0.5
v 0.3 2.1 -0.6
v 0.3 2.1 -0.7
v 0.3 2.2 -0.5
v 0.3 2.2 -0.6
v 0.3 2.2 -0.7
v 0.3 2.3 -0.5
v 0.3 2.3 -0.6
v 0.5 2.1 -0.3
v 0.5 2.1 -0.4
v 0.5 2.2 -0.3
v 0.5 2.3 -0.3
v 0.5 2.3 -0.4
v 0.6 2.1 -0.2
v 0.6 2.1 -0.3
v 0.6 2.2 -0.1
v 0.6 2.2 -0.2
v 0.6 2.2 -0.3
v 0.6 2.3 -0.1
v 0.6 2.3 -0.2
v 0.6 2.3 -0.3
v 0.7 2 -0.1
v 0.7 2 -0.4
v 0.7 2.1 -0.1
v 0.7 2.1 -0.2
v 0.7 2.1 -0.4
v 0.7 2.2 -0.1
v 0.7 2.2 -0.2
v 0.4 2 -0.1
v 0.4 2.2 -0.1
v 0.5 2.2 -0.1
v 0.5 2.3 -0.1
v 0.6 2.1 -0.1
v 0.6 2.2 -0.1
v 0.6 2.3 -0.1
v 0.7 2 -0.1
v 0.7 2.1 -0.1
v 0.7 2.2 -0.1
v 0.4 2.2 -0.2
v 0.4 2.3 -0.2
v 0.5 2.2 -0.2
v 0.5 2.3 -0.2
v 0.1 2 -0.4
v 0.1 2.2 -0.4
v 0.2 2 -0.4
v 0.2 2.1 -0.4
v 0.2 2.2 -0.4
v 0.3 2 -0.4
v 0.3 2.1 -0.4
v 0.2 2.1 -0.5
v 0.2 2.2 -0.5
v 0.2 2.3 -0.5
v 0.3 2.1 -0.5
v 0.3 2.2 -0.5
v 0.3 2.3 -0.5
v 0.6 2.1 -0.2
v 0.6 2.2 -0.2
v 0.7 2.1 -0.2
v 0.7 2.2 -0.2
v 0.5 2.1 -0.3
v 0.5 2.2 -0.3
v 0.5 2.3 -0.3
v 0.6 2.1 -0.3
v 0.6 2.2 -0.3
v 0.6 2.3 -0.3
v 0.4 2 -0.4
v 0.4 2.3 -0.4
v 0.5 2 -0.4
v 0.5 2.1 -0.4
v 0.5 2.3 -0.4
v 0.6 2 -0.4
v 0.6 2.1 -0.4
v 0.7 2 -0.4
v 0.7 2.1 -0.4
v 0.2 2.2 -0.6
v 0.2 2.3 -0.6
v 0.3 2.2 -0.6
v 0.3 2.3 -0.6
v 0.1 2 -0.7
v 0.1 2.2 -0.7
v 0.2 2.1 -0.7
v 0.2 2.2 -0.7
v 0.3 2 -0.7
v 0.3 2.1 -0.7
v 0.3 2.2 -0.7
v 0.4 2 -0.1
v 0.7 2 -0.1
v 0.5 2 -0.3
v 0.6 2 -0.3
v 0.1 2 -0.4
v 0.2 2 -0.4
v 0.3 2 -0.4
v 0.4 2 -0.4
v 0.5 2 -0.4
v 0.6 2 -0.4
v 0.7 2 -0.4
v 0.2 2 -0.6
v 0.3 2 -0.6
v 0.1 2 -0.7
v 0.3 2 -0.7
v 0.6 2.1 -0.2
v 0.7 2.1 -0.2
v 0.5 2.1 -0.3
v 0.6 2.1 -0.3
v 0.2 2.1 -0.4
v 0.3 2.1 -0.4
v 0.5 2.1 -0.4
v 0.6 2.1 -0.4
v 0.7 2.1 -0.4
v 0.2 2.1 -0.5
v 0.3 2.1 -0.5
v 0.4 2.2 -0.1
v 0.5 2.2 -0.1
v 0.6 2.2 -0.1
v 0.7 2.2 -0.1
v 0.4 2.2 -0.2
v 0.5 2.2 -0.2
v 0.6 2.2 -0.2
v 0.7 2.2 -0.2
v 0.1 2.2 -0.4
v 0.2 2.2 -0.4
v 0.2 2.2 -0.5
v 0.2 2.2 -0.6
v 0.3 2.2 -0.6
v 0.1 2.2 -0.7
v 0.2 2.2 -0.7
v 0.3 2.2 -0.7
v 0.5 2.3 -0.1
v 0.6 2.3 -0.1
v 0.4 2.3 -0.2
v 0.5 2.3 -0.2
v 0.6 2.3 -0.2
v 0.5 2.3 -0.3
v 0.6 2.3 -0.3
v 0.4 2.3 -0.4
v 0.5 2.3 -0.4
v 0.2 2.3 -0.5
v 0.3 2.3 -0.5
v 0.2 2.3 -0.6
v 0.3 2.3 -0.6

# faces
f 3/2/1 2/2/1 1/2/1
f 4/2/1 2/2/1 3/2/1
f 7/1/1 6/1/1 5/1/1
f 8/1/1 6/1/1 7/1/1
f 11/2/1 10/2/1 9/2/1
f 12/2/1 10/2/1 11/2/1
f 13/2/1 10/2/1 12/2/1
f 14/2/1 10/2/1 13/2/1
f 17/2/1 16/2/1 15/2/1
f 18/2/1 16/2/1 17/2/1
f 19/2/2 20/2/2 21/2/2
f 21/2/2 20/2/2 22/2/2
f 23/1/2 24/1/2 26/1/2
f 26/1/2 24/1/2 27/1/2
f 24/2/2 25/2/2 28/2/2
f 27/1/2 24/1/2 28/1/2
f 28/2/2 25/2/2 29/2/2
f 27/2/2 28/2/2 30/2/2
f 28/1/2 29/1/2 31/1/2
f 30/2/2 28/2/2 31/2/2
f 31/1/2 29/1/2 32/1/2
f 30/1/2 31/1/2 33/1/2
f 33/1/2 31/1/2 34/1/2
f 35/2/2 36/2/2 37/2/2
f 37/2/2 36/2/2 38/2/2
f 38/2/2 36/2/2 39/2/2
f 40/2/2 41/2/2 43/2/2
f 43/2/2 41/2/2 44/2/2
f 42/2/2 43/2/2 45/2/2
f 43/1/2 44/1/2 46/1/2
f 45/2/2 43/2/2 46/2/2
f 46/1/2 44/1/2 47/1/2
f 48/2/2 49/2/2 50/2/2
f 50/2/2 49/2/2 51/2/2
f 51/2/2 49/2/2 52/2/2
f 50/1/2 51/1/2 53/1/2
f 53/1/2 51/1/2 54/1/2
f 57/2/3 56/2/3 55/2/3
f 59/2/3 57/2/3 55/2/3
f 59/2/3 58/2/3 57/2/3
f 60/2/3 58/2/3 59/2/3
f 61/2/3 58/2/3 60/2/3
f 62/2/3 59/2/3 55/2/3
f 63/1/3 60/1/3 59/1/3
f 63/2/3 59/2/3 62/2/3
f 64/1/3 60/1/3 63/1/3
f 67/2/3 66/2/3 65/2/3
f 68/2/3 66/2/3 67/2/3
f 71/2/3 70/2/3 69/2/3
f 72/2/3 70/2/3 71/2/3
f 73/2/3 70/2/3 72/2/3
f 74/1/3 72/1/3 71/1/3
f 75/1/3 72/1/3 74/1/3
f 79/2/3 77/2/3 76/2/3
f 80/1/3 78/1/3 77/1/3
f 80/2/3 77/2/3 79/2/3
f 81/1/3 78/1/3 80/1/3
f 82/1/4 83/1/4 84/1/4
f 84/1/4 83/1/4 85/1/4
f 86/2/4 87/2/4 89/2/4
f 87/1/4 88/1/4 90/1/4
f 89/2/4 87/2/4 90/2/4
f 90/1/4 88/1/4 91/1/4
f 92/2/4 93/2/4 94/2/4
f 94/2/4 93/2/4 95/2/4
f 95/2/4 93/2/4 96/2/4
f 94/1/4 95/1/4 97/1/4
f 97/1/4 95/1/4 98/1/4
f 97/2/4 98/2/4 99/2/4
f 99/2/4 98/2/4 100/2/4
f 101/1/4 102/1/4 103/1/4
f 103/1/4 102/1/4 104/1/4
f 105/2/4 106/2/4 107/2/4
f 107/2/4 106/2/4 108/2/4
f 105/2/4 107/2/4 109/2/4
f 107/1/4 108/1/4 110/1/4
f 109/2/4 107/2/4 110/2/4
f 110/1/4 108/1/4 111/1/4
f 114/2/5 113/2/5 112/2/5
f 115/2/5 113/2/5 114/2/5
f 119/2/5 114/2/5 112/2/5
f 120/1/5 115/1/5 114/1/5
f 120/2/5 114/2/5 119/2/5
f 121/2/5 113/2/5 115/2/5
f 121/1/5 115/1/5 120/1/5
f 122/2/5 113/2/5 121/2/5
f 123/1/5 118/1/5 117/1/5
f 123/2/5 117/2/5 116/2/5
f 124/1/5 118/1/5 123/1/5
f 125/2/5 123/2/5 116/2/5
f 125/2/5 124/2/5 123/2/5
f 126/2/5 124/2/5 125/2/5
f 127/2/6 128/2/6 130/2/6
f 129/1/6 130/1/6 133/1/6
f 130/2/6 128/2/6 134/2/6
f 133/1/6 130/1/6 134/1/6
f 134/2/6 128/2/6 135/2/6
f 131/1/6 132/1/6 136/1/6
f 136/1/6 132/1/6 137/1/6
f 138/2/6 139/2/6 142/2/6
f 142/2/6 139/2/6 143/2/6
f 140/1/6 141/1/6 144/1/6
f 144/1/6 141/1/6 145/1/6
f 146/2/6 147/2/6 148/2/6
f 146/2/6 148/2/6 149/2/6
f 146/2/6 149/2/6 151/2/6
f 149/1/6 150/1/6 152/1/6
f 151/2/6 149/2/6 152/2/6
f 152/1/6 150/1/6 153/1/6
f 154/2/6 155/2/6 157/2/6
f 157/2/6 155/2/6 158/2/6
f 156/2/6 157/2/6 159/2/6
f 157/1/6 158/1/6 159/1/6
f 159/1/6 158/1/6 160/1/6
f 156/2/6 159/2/6 161/2/6
f 161/2/6 159/2/6 162/2/6
f 163/1/6 164/1/6 165/1/6
f 165/1/6 164/1/6 166/1/6
