# MagicaVoxel @ Ephtracy

# group
o 

# material
mtllib tree_8x16_v1.mtl
usemtl palette

# normals
vn -1 0 0
vn 1 0 0
vn 0 0 1
vn 0 0 -1
vn 0 -1 0
vn 0 1 0

# texcoords
vt 0.310547 0.5
vt 0.318359 0.5
vt 0.541016 0.5
vt 0.556641 0.5

# verts
v 0 3 -0.2
v 0 3 -0.6
v 0 3.1 -0.5
v 0 3.1 -0.6
v 0 3.3 -0.6
v 0 3.3 -0.7
v 0 3.4 -0.4
v 0 3.4 -0.5
v 0 3.4 -0.7
v 0 3.5 -0.2
v 0 3.5 -0.4
v 0 3.5 -0.5
v 0.1 2.7 -0.2
v 0.1 2.7 -0.6
v 0.1 3 -0.2
v 0.1 3 -0.6
v 0.1 3.1 0
v 0.1 3.1 -0.2
v 0.1 3.3 0
v 0.1 3.3 -0.2
v 0.1 3.4 -0.5
v 0.1 3.4 -0.6
v 0.1 3.5 -0.2
v 0.1 3.5 -0.4
v 0.1 3.5 -0.5
v 0.1 3.5 -0.6
v 0.1 3.6 -0.2
v 0.1 3.6 -0.4
v 0.2 2 -0.2
v 0.2 2 -0.6
v 0.2 2.2 -0.5
v 0.2 2.2 -0.6
v 0.2 2.5 -0.5
v 0.2 2.5 -0.6
v 0.2 2.7 -0.1
v 0.2 2.7 -0.2
v 0.2 2.7 -0.6
v 0.2 2.7 -0.7
v 0.2 3.1 -0.1
v 0.2 3.1 -0.2
v 0.2 3.1 -0.7
v 0.2 3.1 -0.8
v 0.2 3.2 -0.6
v 0.2 3.2 -0.7
v 0.2 3.3 0
v 0.2 3.3 -0.2
v 0.2 3.3 -0.7
v 0.2 3.4 -0.6
v 0.2 3.4 -0.7
v 0.2 3.4 -0.8
v 0.2 3.5 0
v 0.2 3.5 -0.1
v 0.2 3.5 -0.2
v 0.2 3.5 -0.6
v 0.2 3.5 -0.7
v 0.2 3.6 -0.1
v 0.2 3.6 -0.2
v 0.3 2.8 0
v 0.3 2.8 -0.1
v 0.3 3.1 0
v 0.3 3.1 -0.1
v 0.3 3.5 0
v 0.3 3.5 -0.1
v 0.3 3.6 0
v 0.3 3.6 -0.1
v 0.5 3.2 -0.4
v 0.5 3.2 -0.6
v 0.5 3.2 -0.7
v 0.5 3.3 -0.4
v 0.5 3.3 -0.6
v 0.5 3.3 -0.7
v 0.3 3.2 -0.4
v 0.3 3.2 -0.6
v 0.3 3.3 -0.4
v 0.3 3.3 -0.6
v 0.4 3.4 0
v 0.4 3.4 -0.1
v 0.4 3.5 0
v 0.4 3.5 -0.1
v 0.4 3.6 0
v 0.4 3.6 -0.1
v 0.6 2 -0.2
v 0.6 2 -0.3
v 0.6 2 -0.5
v 0.6 2 -0.6
v 0.6 2.1 -0.3
v 0.6 2.1 -0.4
v 0.6 2.3 -0.2
v 0.6 2.3 -0.3
v 0.6 2.4 -0.3
v 0.6 2.4 -0.4
v 0.6 2.5 -0.3
v 0.6 2.5 -0.4
v 0.6 2.6 -0.3
v 0.6 2.6 -0.4
v 0.6 2.6 -0.5
v 0.6 2.6 -0.6
v 0.6 2.7 -0.1
v 0.6 2.7 -0.2
v 0.6 2.7 -0.4
v 0.6 2.7 -0.5
v 0.6 2.7 -0.6
v 0.6 2.7 -0.7
v 0.6 2.8 -0.1
v 0.6 2.8 -0.2
v 0.6 2.8 -0.5
v 0.6 2.8 -0.6
v 0.6 2.9 -0.4
v 0.6 2.9 -0.6
v 0.6 3 -0.6
v 0.6 3 -0.7
v 0.6 3.1 -0.7
v 0.6 3.1 -0.8
v 0.6 3.2 -0.6
v 0.6 3.2 -0.7
v 0.6 3.4 -0.1
v 0.6 3.4 -0.2
v 0.6 3.4 -0.6
v 0.6 3.4 -0.7
v 0.6 3.4 -0.8
v 0.6 3.5 -0.2
v 0.6 3.5 -0.4
v 0.6 3.5 -0.6
v 0.6 3.5 -0.7
v 0.6 3.6 -0.1
v 0.6 3.6 -0.4
v 0.7 2.7 -0.2
v 0.7 2.7 -0.4
v 0.7 2.8 0
v 0.7 2.8 -0.1
v 0.7 2.8 -0.2
v 0.7 2.9 0
v 0.7 2.9 -0.1
v 0.7 2.9 -0.2
v 0.7 2.9 -0.3
v 0.7 2.9 -0.4
v 0.7 2.9 -0.6
v 0.7 3 -0.3
v 0.7 3 -0.6
v 0.7 3.1 0
v 0.7 3.1 -0.1
v 0.7 3.2 -0.3
v 0.7 3.2 -0.6
v 0.7 3.4 0
v 0.7 3.4 -0.1
v 0.7 3.4 -0.5
v 0.7 3.4 -0.6
v 0.7 3.5 -0.5
v 0.7 3.5 -0.6
v 0.8 2.8 -0.1
v 0.8 2.8 -0.2
v 0.8 2.9 0
v 0.8 2.9 -0.1
v 0.8 2.9 -0.2
v 0.8 2.9 -0.3
v 0.8 3.1 0
v 0.8 3.1 -0.1
v 0.8 3.1 -0.2
v 0.8 3.2 -0.3
v 0.8 3.2 -0.7
v 0.8 3.4 -0.1
v 0.8 3.4 -0.2
v 0.8 3.4 -0.3
v 0.8 3.4 -0.5
v 0.8 3.4 -0.7
v 0.8 3.5 -0.2
v 0.8 3.5 -0.5
v 0.1 3.1 0
v 0.1 3.3 0
v 0.2 3.3 0
v 0.2 3.5 0
v 0.3 2.8 0
v 0.3 3.1 0
v 0.3 3.5 0
v 0.3 3.6 0
v 0.4 3.1 0
v 0.4 3.4 0
v 0.4 3.5 0
v 0.4 3.6 0
v 0.5 3.1 0
v 0.5 3.4 0
v 0.7 2.8 0
v 0.7 2.9 0
v 0.7 3.1 0
v 0.7 3.4 0
v 0.8 2.9 0
v 0.8 3.1 0
v 0.2 2.7 -0.1
v 0.2 3.1 -0.1
v 0.2 3.5 -0.1
v 0.2 3.6 -0.1
v 0.3 2.8 -0.1
v 0.3 3.1 -0.1
v 0.3 3.5 -0.1
v 0.3 3.6 -0.1
v 0.4 3.4 -0.1
v 0.4 3.5 -0.1
v 0.4 3.6 -0.1
v 0.5 3.4 -0.1
v 0.6 2.7 -0.1
v 0.6 2.8 -0.1
v 0.6 3.4 -0.1
v 0.6 3.6 -0.1
v 0.7 2.8 -0.1
v 0.7 2.9 -0.1
v 0.7 3.1 -0.1
v 0.7 3.4 -0.1
v 0.8 2.8 -0.1
v 0.8 2.9 -0.1
v 0.8 3.1 -0.1
v 0.8 3.4 -0.1
v 0 3 -0.2
v 0 3.5 -0.2
v 0.1 2.7 -0.2
v 0.1 3 -0.2
v 0.1 3.1 -0.2
v 0.1 3.3 -0.2
v 0.1 3.5 -0.2
v 0.1 3.6 -0.2
v 0.2 2 -0.2
v 0.2 2.7 -0.2
v 0.2 3.1 -0.2
v 0.2 3.3 -0.2
v 0.2 3.5 -0.2
v 0.2 3.6 -0.2
v 0.3 2.4 -0.2
v 0.3 2.6 -0.2
v 0.4 2 -0.2
v 0.4 2.1 -0.2
v 0.4 2.2 -0.2
v 0.4 2.4 -0.2
v 0.4 2.5 -0.2
v 0.4 2.6 -0.2
v 0.5 2.1 -0.2
v 0.5 2.2 -0.2
v 0.5 2.3 -0.2
v 0.5 2.5 -0.2
v 0.6 2 -0.2
v 0.6 2.3 -0.2
v 0.6 2.7 -0.2
v 0.6 2.8 -0.2
v 0.6 3.4 -0.2
v 0.6 3.5 -0.2
v 0.7 2.7 -0.2
v 0.7 2.8 -0.2
v 0.8 3.4 -0.2
v 0.8 3.5 -0.2
v 0.2 3.2 -0.7
v 0.2 3.3 -0.7
v 0.3 3.2 -0.7
v 0.3 3.3 -0.7
v 0.5 3.2 -0.7
v 0.5 3.3 -0.7
v 0.7 2.8 -0.2
v 0.7 2.9 -0.2
v 0.8 2.8 -0.2
v 0.8 2.9 -0.2
v 0.7 2.9 -0.3
v 0.7 3 -0.3
v 0.7 3.2 -0.3
v 0.8 2.9 -0.3
v 0.8 3.2 -0.3
v 0.1 3.5 -0.4
v 0.1 3.6 -0.4
v 0.3 3.2 -0.4
v 0.3 3.3 -0.4
v 0.5 3.2 -0.4
v 0.5 3.3 -0.4
v 0.5 3.5 -0.4
v 0.6 2.7 -0.4
v 0.6 2.9 -0.4
v 0.6 3.5 -0.4
v 0.6 3.6 -0.4
v 0.7 2.7 -0.4
v 0.7 2.9 -0.4
v 0 3.4 -0.5
v 0 3.5 -0.5
v 0.1 3.4 -0.5
v 0.1 3.5 -0.5
v 0.7 3.4 -0.5
v 0.7 3.5 -0.5
v 0.8 3.4 -0.5
v 0.8 3.5 -0.5
v 0 3 -0.6
v 0 3.1 -0.6
v 0 3.3 -0.6
v 0.1 2.7 -0.6
v 0.1 3 -0.6
v 0.1 3.1 -0.6
v 0.1 3.3 -0.6
v 0.1 3.4 -0.6
v 0.1 3.5 -0.6
v 0.2 2 -0.6
v 0.2 2.2 -0.6
v 0.2 2.5 -0.6
v 0.2 2.7 -0.6
v 0.2 3.2 -0.6
v 0.2 3.4 -0.6
v 0.2 3.5 -0.6
v 0.3 2 -0.6
v 0.3 2.2 -0.6
v 0.3 2.3 -0.6
v 0.3 2.5 -0.6
v 0.3 3.2 -0.6
v 0.3 3.3 -0.6
v 0.5 2.3 -0.6
v 0.5 2.6 -0.6
v 0.6 2 -0.6
v 0.6 2.6 -0.6
v 0.6 2.7 -0.6
v 0.6 2.9 -0.6
v 0.6 3 -0.6
v 0.6 3.2 -0.6
v 0.6 3.4 -0.6
v 0.6 3.5 -0.6
v 0.7 2.9 -0.6
v 0.7 3 -0.6
v 0.7 3.2 -0.6
v 0.7 3.4 -0.6
v 0.7 3.5 -0.6
v 0 3.3 -0.7
v 0 3.4 -0.7
v 0.1 3.3 -0.7
v 0.1 3.4 -0.7
v 0.2 2.7 -0.7
v 0.2 3.1 -0.7
v 0.2 3.3 -0.7
v 0.2 3.4 -0.7
v 0.2 3.5 -0.7
v 0.3 3 -0.7
v 0.3 3.1 -0.7
v 0.3 3.4 -0.7
v 0.5 3.1 -0.7
v 0.5 3.4 -0.7
v 0.5 3.5 -0.7
v 0.6 2.7 -0.7
v 0.6 3 -0.7
v 0.6 3.1 -0.7
v 0.6 3.2 -0.7
v 0.6 3.4 -0.7
v 0.6 3.5 -0.7
v 0.8 3.2 -0.7
v 0.8 3.4 -0.7
v 0.2 3.1 -0.8
v 0.2 3.4 -0.8
v 0.3 3.1 -0.8
v 0.3 3.4 -0.8
v 0.5 3.1 -0.8
v 0.5 3.4 -0.8
v 0.6 3.1 -0.8
v 0.6 3.4 -0.8
v 0.2 2 -0.2
v 0.4 2 -0.2
v 0.6 2 -0.2
v 0.4 2 -0.3
v 0.6 2 -0.3
v 0.3 2 -0.5
v 0.6 2 -0.5
v 0.2 2 -0.6
v 0.3 2 -0.6
v 0.6 2 -0.6
v 0.2 2.7 -0.1
v 0.6 2.7 -0.1
v 0.1 2.7 -0.2
v 0.2 2.7 -0.2
v 0.6 2.7 -0.2
v 0.7 2.7 -0.2
v 0.6 2.7 -0.4
v 0.7 2.7 -0.4
v 0.1 2.7 -0.6
v 0.2 2.7 -0.6
v 0.6 2.7 -0.6
v 0.2 2.7 -0.7
v 0.6 2.7 -0.7
v 0.3 2.8 0
v 0.7 2.8 0
v 0.3 2.8 -0.1
v 0.6 2.8 -0.1
v 0.7 2.8 -0.1
v 0.8 2.8 -0.1
v 0.6 2.8 -0.2
v 0.7 2.8 -0.2
v 0.8 2.8 -0.2
v 0.7 2.9 0
v 0.8 2.9 0
v 0.7 2.9 -0.1
v 0.8 2.9 -0.1
v 0.7 2.9 -0.2
v 0.8 2.9 -0.2
v 0.7 2.9 -0.3
v 0.8 2.9 -0.3
v 0.6 2.9 -0.4
v 0.7 2.9 -0.4
v 0.6 2.9 -0.6
v 0.7 2.9 -0.6
v 0 3 -0.2
v 0.1 3 -0.2
v 0 3 -0.6
v 0.1 3 -0.6
v 0.1 3.1 0
v 0.3 3.1 0
v 0.2 3.1 -0.1
v 0.3 3.1 -0.1
v 0.1 3.1 -0.2
v 0.2 3.1 -0.2
v 0.2 3.1 -0.7
v 0.3 3.1 -0.7
v 0.5 3.1 -0.7
v 0.6 3.1 -0.7
v 0.2 3.1 -0.8
v 0.3 3.1 -0.8
v 0.5 3.1 -0.8
v 0.6 3.1 -0.8
v 0.7 3.2 -0.3
v 0.8 3.2 -0.3
v 0.6 3.2 -0.6
v 0.7 3.2 -0.6
v 0.6 3.2 -0.7
v 0.8 3.2 -0.7
v 0.3 3.3 -0.4
v 0.5 3.3 -0.4
v 0 3.3 -0.6
v 0.1 3.3 -0.6
v 0.3 3.3 -0.6
v 0.5 3.3 -0.6
v 0 3.3 -0.7
v 0.1 3.3 -0.7
v 0.2 3.3 -0.7
v 0.3 3.3 -0.7
v 0.5 3.3 -0.7
v 0.7 3.1 0
v 0.8 3.1 0
v 0.7 3.1 -0.1
v 0.8 3.1 -0.1
v 0.3 3.2 -0.4
v 0.5 3.2 -0.4
v 0.2 3.2 -0.6
v 0.3 3.2 -0.6
v 0.5 3.2 -0.6
v 0.2 3.2 -0.7
v 0.3 3.2 -0.7
v 0.5 3.2 -0.7
v 0.1 3.3 0
v 0.2 3.3 0
v 0.1 3.3 -0.2
v 0.2 3.3 -0.2
v 0.4 3.4 0
v 0.5 3.4 0
v 0.7 3.4 0
v 0.4 3.4 -0.1
v 0.5 3.4 -0.1
v 0.6 3.4 -0.1
v 0.7 3.4 -0.1
v 0.8 3.4 -0.1
v 0.6 3.4 -0.2
v 0.8 3.4 -0.2
v 0 3.4 -0.5
v 0.1 3.4 -0.5
v 0.7 3.4 -0.5
v 0.8 3.4 -0.5
v 0.1 3.4 -0.6
v 0.2 3.4 -0.6
v 0.6 3.4 -0.6
v 0.7 3.4 -0.6
v 0 3.4 -0.7
v 0.1 3.4 -0.7
v 0.2 3.4 -0.7
v 0.3 3.4 -0.7
v 0.5 3.4 -0.7
v 0.6 3.4 -0.7
v 0.8 3.4 -0.7
v 0.2 3.4 -0.8
v 0.3 3.4 -0.8
v 0.5 3.4 -0.8
v 0.6 3.4 -0.8
v 0.2 3.5 0
v 0.3 3.5 0
v 0.2 3.5 -0.1
v 0.3 3.5 -0.1
v 0 3.5 -0.2
v 0.1 3.5 -0.2
v 0.6 3.5 -0.2
v 0.8 3.5 -0.2
v 0 3.5 -0.4
v 0.1 3.5 -0.4
v 0.5 3.5 -0.4
v 0.6 3.5 -0.4
v 0 3.5 -0.5
v 0.1 3.5 -0.5
v 0.7 3.5 -0.5
v 0.8 3.5 -0.5
v 0.1 3.5 -0.6
v 0.2 3.5 -0.6
v 0.6 3.5 -0.6
v 0.7 3.5 -0.6
v 0.2 3.5 -0.7
v 0.5 3.5 -0.7
v 0.6 3.5 -0.7
v 0.3 3.6 0
v 0.4 3.6 0
v 0.2 3.6 -0.1
v 0.3 3.6 -0.1
v 0.4 3.6 -0.1
v 0.6 3.6 -0.1
v 0.1 3.6 -0.2
v 0.2 3.6 -0.2
v 0.1 3.6 -0.4
v 0.6 3.6 -0.4

# faces
f 3/4/1 2/4/1 1/4/1
f 4/4/1 2/4/1 3/4/1
f 5/3/1 4/3/1 3/3/1
f 7/4/1 3/4/1 1/4/1
f 8/3/1 6/3/1 5/3/1
f 8/4/1 3/4/1 7/4/1
f 8/3/1 5/3/1 3/3/1
f 9/3/1 6/3/1 8/3/1
f 10/4/1 7/4/1 1/4/1
f 11/3/1 8/3/1 7/3/1
f 11/4/1 7/4/1 10/4/1
f 12/3/1 8/3/1 11/3/1
f 15/4/1 14/4/1 13/4/1
f 16/4/1 14/4/1 15/4/1
f 19/3/1 18/3/1 17/3/1
f 20/3/1 18/3/1 19/3/1
f 25/3/1 22/3/1 21/3/1
f 26/3/1 22/3/1 25/3/1
f 27/4/1 24/4/1 23/4/1
f 28/4/1 24/4/1 27/4/1
f 31/1/1 30/1/1 29/1/1
f 32/1/1 30/1/1 31/1/1
f 33/1/1 31/1/1 29/1/1
f 33/2/1 32/2/1 31/2/1
f 34/2/1 32/2/1 33/2/1
f 36/1/1 33/1/1 29/1/1
f 36/1/1 34/1/1 33/1/1
f 37/1/1 34/1/1 36/1/1
f 39/4/1 36/4/1 35/4/1
f 40/4/1 36/4/1 39/4/1
f 41/4/1 38/4/1 37/4/1
f 43/4/1 42/4/1 41/4/1
f 43/4/1 41/4/1 37/4/1
f 44/4/1 42/4/1 43/4/1
f 47/4/1 42/4/1 44/4/1
f 49/4/1 42/4/1 47/4/1
f 50/4/1 42/4/1 49/4/1
f 51/3/1 46/3/1 45/3/1
f 52/3/1 46/3/1 51/3/1
f 53/3/1 46/3/1 52/3/1
f 54/3/1 49/3/1 48/3/1
f 55/3/1 49/3/1 54/3/1
f 56/4/1 53/4/1 52/4/1
f 57/4/1 53/4/1 56/4/1
f 60/4/1 59/4/1 58/4/1
f 61/4/1 59/4/1 60/4/1
f 64/4/1 63/4/1 62/4/1
f 65/4/1 63/4/1 64/4/1
f 69/3/1 67/3/1 66/3/1
f 69/3/1 68/3/1 67/3/1
f 70/3/1 68/3/1 69/3/1
f 71/3/1 68/3/1 70/3/1
f 72/4/2 73/4/2 74/4/2
f 74/4/2 73/4/2 75/4/2
f 76/3/2 77/3/2 78/3/2
f 78/3/2 77/3/2 79/3/2
f 78/4/2 79/4/2 80/4/2
f 80/4/2 79/4/2 81/4/2
f 82/2/2 83/2/2 86/2/2
f 83/1/2 84/1/2 86/1/2
f 86/1/2 84/1/2 87/1/2
f 82/2/2 86/2/2 88/2/2
f 86/2/2 87/2/2 88/2/2
f 88/2/2 87/2/2 89/2/2
f 88/1/2 89/1/2 90/1/2
f 89/2/2 87/2/2 90/2/2
f 87/1/2 84/1/2 91/1/2
f 90/2/2 87/2/2 91/2/2
f 88/1/2 90/1/2 92/1/2
f 90/1/2 91/1/2 92/1/2
f 91/1/2 84/1/2 93/1/2
f 92/1/2 91/1/2 93/1/2
f 88/1/2 92/1/2 94/1/2
f 92/2/2 93/2/2 94/2/2
f 93/1/2 84/1/2 95/1/2
f 94/2/2 93/2/2 95/2/2
f 84/2/2 85/2/2 96/2/2
f 95/1/2 84/1/2 96/1/2
f 96/2/2 85/2/2 97/2/2
f 94/1/2 95/1/2 99/1/2
f 88/1/2 94/1/2 99/1/2
f 96/1/2 97/1/2 99/1/2
f 95/1/2 96/1/2 99/1/2
f 99/1/2 97/1/2 100/1/2
f 100/1/2 97/1/2 101/1/2
f 101/1/2 97/1/2 102/1/2
f 98/4/2 99/4/2 104/4/2
f 104/4/2 99/4/2 105/4/2
f 101/2/2 102/2/2 106/2/2
f 100/1/2 101/1/2 106/1/2
f 102/4/2 103/4/2 107/4/2
f 106/2/2 102/2/2 107/2/2
f 100/1/2 106/1/2 108/1/2
f 106/1/2 107/1/2 108/1/2
f 107/4/2 103/4/2 109/4/2
f 108/1/2 107/1/2 109/1/2
f 109/4/2 103/4/2 110/4/2
f 110/4/2 103/4/2 111/4/2
f 110/3/2 111/3/2 112/3/2
f 110/3/2 112/3/2 114/3/2
f 112/4/2 113/4/2 115/4/2
f 114/3/2 112/3/2 115/3/2
f 115/4/2 113/4/2 119/4/2
f 119/4/2 113/4/2 120/4/2
f 116/4/2 117/4/2 121/4/2
f 118/4/2 119/4/2 123/4/2
f 123/4/2 119/4/2 124/4/2
f 121/4/2 122/4/2 125/4/2
f 116/4/2 121/4/2 125/4/2
f 125/4/2 122/4/2 126/4/2
f 127/4/2 128/4/2 131/4/2
f 129/4/2 130/4/2 132/4/2
f 132/4/2 130/4/2 133/4/2
f 131/4/2 128/4/2 134/4/2
f 134/4/2 128/4/2 135/4/2
f 135/4/2 128/4/2 136/4/2
f 136/4/2 137/4/2 138/4/2
f 135/4/2 136/4/2 138/4/2
f 138/4/2 137/4/2 139/4/2
f 138/3/2 139/3/2 142/3/2
f 142/3/2 139/3/2 143/3/2
f 140/3/2 141/3/2 144/3/2
f 144/3/2 141/3/2 145/3/2
f 146/4/2 147/4/2 148/4/2
f 148/4/2 147/4/2 149/4/2
f 150/4/2 151/4/2 153/4/2
f 153/4/2 151/4/2 154/4/2
f 152/4/2 153/4/2 156/4/2
f 154/4/2 155/4/2 156/4/2
f 153/4/2 154/4/2 156/4/2
f 156/4/2 155/4/2 157/4/2
f 157/4/2 155/4/2 158/4/2
f 158/4/2 155/4/2 159/4/2
f 157/3/2 158/3/2 161/3/2
f 158/4/2 159/4/2 162/4/2
f 161/3/2 158/3/2 162/3/2
f 159/3/2 160/3/2 163/3/2
f 162/4/2 159/4/2 163/4/2
f 163/3/2 160/3/2 164/3/2
f 164/3/2 160/3/2 165/3/2
f 162/4/2 163/4/2 166/4/2
f 163/4/2 164/4/2 166/4/2
f 166/4/2 164/4/2 167/4/2
f 170/3/3 169/3/3 168/3/3
f 173/3/3 170/3/3 168/3/3
f 173/3/3 171/3/3 170/3/3
f 174/3/3 171/3/3 173/3/3
f 176/4/3 173/4/3 172/4/3
f 176/3/3 174/3/3 173/3/3
f 177/3/3 174/3/3 176/3/3
f 178/4/3 175/4/3 174/4/3
f 178/3/3 174/3/3 177/3/3
f 179/4/3 175/4/3 178/4/3
f 180/4/3 177/4/3 176/4/3
f 180/4/3 176/4/3 172/4/3
f 181/4/3 177/4/3 180/4/3
f 182/4/3 180/4/3 172/4/3
f 183/4/3 180/4/3 182/4/3
f 184/3/3 181/3/3 180/3/3
f 184/4/3 180/4/3 183/4/3
f 185/3/3 181/3/3 184/3/3
f 186/4/3 184/4/3 183/4/3
f 187/4/3 184/4/3 186/4/3
f 192/4/3 189/4/3 188/4/3
f 193/4/3 189/4/3 192/4/3
f 194/4/3 191/4/3 190/4/3
f 195/4/3 191/4/3 194/4/3
f 199/4/3 197/4/3 196/4/3
f 199/4/3 198/4/3 197/4/3
f 200/4/3 192/4/3 188/4/3
f 201/4/3 192/4/3 200/4/3
f 202/4/3 198/4/3 199/4/3
f 203/4/3 198/4/3 202/4/3
f 208/4/3 205/4/3 204/4/3
f 209/4/3 205/4/3 208/4/3
f 210/3/3 207/3/3 206/3/3
f 211/3/3 207/3/3 210/3/3
f 215/4/3 213/4/3 212/4/3
f 216/4/3 213/4/3 215/4/3
f 217/4/3 213/4/3 216/4/3
f 218/4/3 213/4/3 217/4/3
f 221/4/3 215/4/3 214/4/3
f 221/4/3 216/4/3 215/4/3
f 222/4/3 216/4/3 221/4/3
f 223/3/3 218/3/3 217/3/3
f 224/4/3 219/4/3 218/4/3
f 224/3/3 218/3/3 223/3/3
f 225/4/3 219/4/3 224/4/3
f 226/1/3 221/1/3 220/1/3
f 227/1/3 221/1/3 226/1/3
f 228/1/3 226/1/3 220/1/3
f 229/1/3 226/1/3 228/1/3
f 230/1/3 226/1/3 229/1/3
f 231/2/3 227/2/3 226/2/3
f 231/1/3 226/1/3 230/1/3
f 232/2/3 227/2/3 231/2/3
f 233/1/3 221/1/3 227/1/3
f 233/2/3 227/2/3 232/2/3
f 234/1/3 230/1/3 229/1/3
f 234/2/3 229/2/3 228/2/3
f 235/2/3 232/2/3 231/2/3
f 235/1/3 230/1/3 234/1/3
f 235/2/3 231/2/3 230/2/3
f 236/2/3 232/2/3 235/2/3
f 237/1/3 233/1/3 232/1/3
f 237/2/3 232/2/3 236/2/3
f 238/2/3 234/2/3 228/2/3
f 238/2/3 236/2/3 235/2/3
f 238/2/3 235/2/3 234/2/3
f 239/1/3 237/1/3 236/1/3
f 239/2/3 236/2/3 238/2/3
f 240/1/3 233/1/3 237/1/3
f 240/1/3 237/1/3 239/1/3
f 240/1/3 221/1/3 233/1/3
f 244/4/3 241/4/3 240/4/3
f 245/4/3 241/4/3 244/4/3
f 246/4/3 243/4/3 242/4/3
f 247/4/3 243/4/3 246/4/3
f 250/4/3 249/4/3 248/4/3
f 251/4/3 249/4/3 250/4/3
f 252/3/3 251/3/3 250/3/3
f 253/3/3 251/3/3 252/3/3
f 254/4/4 255/4/4 256/4/4
f 256/4/4 255/4/4 257/4/4
f 258/4/4 259/4/4 261/4/4
f 259/4/4 260/4/4 261/4/4
f 261/4/4 260/4/4 262/4/4
f 265/4/4 266/4/4 267/4/4
f 267/4/4 266/4/4 268/4/4
f 263/4/4 264/4/4 269/4/4
f 269/4/4 264/4/4 272/4/4
f 272/4/4 264/4/4 273/4/4
f 270/4/4 271/4/4 274/4/4
f 274/4/4 271/4/4 275/4/4
f 276/3/4 277/3/4 278/3/4
f 278/3/4 277/3/4 279/3/4
f 280/4/4 281/4/4 282/4/4
f 282/4/4 281/4/4 283/4/4
f 284/4/4 285/4/4 288/4/4
f 285/3/4 286/3/4 289/3/4
f 288/4/4 285/4/4 289/4/4
f 289/3/4 286/3/4 290/3/4
f 287/4/4 288/4/4 296/4/4
f 288/4/4 289/4/4 296/4/4
f 289/4/4 290/4/4 296/4/4
f 296/4/4 290/4/4 297/4/4
f 291/3/4 292/3/4 298/3/4
f 298/3/4 292/3/4 299/3/4
f 293/1/4 294/1/4 300/1/4
f 294/2/4 295/2/4 301/2/4
f 300/1/4 294/1/4 301/1/4
f 301/2/4 295/2/4 302/2/4
f 295/1/4 296/1/4 303/1/4
f 302/2/4 295/2/4 303/2/4
f 297/4/4 290/4/4 304/4/4
f 304/4/4 290/4/4 305/4/4
f 301/2/4 302/2/4 306/2/4
f 300/2/4 301/2/4 306/2/4
f 302/1/4 303/1/4 306/1/4
f 303/1/4 296/1/4 307/1/4
f 306/1/4 303/1/4 307/1/4
f 300/2/4 306/2/4 308/2/4
f 306/2/4 307/2/4 308/2/4
f 307/1/4 296/1/4 309/1/4
f 308/2/4 307/2/4 309/2/4
f 309/1/4 296/1/4 310/1/4
f 311/4/4 312/4/4 316/4/4
f 312/3/4 313/3/4 317/3/4
f 316/4/4 312/4/4 317/4/4
f 317/3/4 313/3/4 318/3/4
f 314/4/4 315/4/4 319/4/4
f 319/4/4 315/4/4 320/4/4
f 321/3/4 322/3/4 323/3/4
f 323/3/4 322/3/4 324/3/4
f 323/4/4 324/4/4 327/4/4
f 327/4/4 324/4/4 328/4/4
f 325/4/4 326/4/4 330/4/4
f 330/4/4 326/4/4 331/4/4
f 328/3/4 329/3/4 332/3/4
f 330/3/4 331/3/4 333/3/4
f 332/3/4 329/3/4 334/3/4
f 334/3/4 329/3/4 335/3/4
f 325/4/4 330/4/4 336/4/4
f 330/3/4 333/3/4 337/3/4
f 336/4/4 330/4/4 337/4/4
f 337/3/4 333/3/4 338/3/4
f 334/4/4 335/4/4 340/4/4
f 340/4/4 335/4/4 341/4/4
f 339/3/4 340/3/4 342/3/4
f 342/3/4 340/3/4 343/3/4
f 344/4/4 345/4/4 346/4/4
f 346/4/4 345/4/4 347/4/4
f 346/3/4 347/3/4 348/3/4
f 348/3/4 347/3/4 349/3/4
f 348/4/4 349/4/4 350/4/4
f 350/4/4 349/4/4 351/4/4
f 355/1/5 353/1/5 352/1/5
f 355/2/5 354/2/5 353/2/5
f 356/2/5 354/2/5 355/2/5
f 357/1/5 355/1/5 352/1/5
f 357/1/5 356/1/5 355/1/5
f 358/1/5 356/1/5 357/1/5
f 359/1/5 357/1/5 352/1/5
f 360/2/5 358/2/5 357/2/5
f 360/1/5 357/1/5 359/1/5
f 361/2/5 358/2/5 360/2/5
f 365/4/5 363/4/5 362/4/5
f 366/4/5 363/4/5 365/4/5
f 368/4/5 367/4/5 366/4/5
f 369/4/5 367/4/5 368/4/5
f 370/4/5 365/4/5 364/4/5
f 371/4/5 365/4/5 370/4/5
f 373/4/5 372/4/5 371/4/5
f 374/4/5 372/4/5 373/4/5
f 377/4/5 376/4/5 375/4/5
f 378/4/5 376/4/5 377/4/5
f 379/4/5 376/4/5 378/4/5
f 381/4/5 380/4/5 379/4/5
f 381/4/5 379/4/5 378/4/5
f 382/4/5 380/4/5 381/4/5
f 383/4/5 380/4/5 382/4/5
f 386/4/5 385/4/5 384/4/5
f 387/4/5 385/4/5 386/4/5
f 390/4/5 389/4/5 388/4/5
f 391/4/5 389/4/5 390/4/5
f 394/4/5 393/4/5 392/4/5
f 395/4/5 393/4/5 394/4/5
f 398/4/5 397/4/5 396/4/5
f 399/4/5 397/4/5 398/4/5
f 402/3/5 401/3/5 400/3/5
f 403/3/5 401/3/5 402/3/5
f 404/3/5 402/3/5 400/3/5
f 405/3/5 402/3/5 404/3/5
f 410/4/5 407/4/5 406/4/5
f 411/3/5 408/3/5 407/3/5
f 411/4/5 407/4/5 410/4/5
f 412/4/5 409/4/5 408/4/5
f 412/3/5 408/3/5 411/3/5
f 413/4/5 409/4/5 412/4/5
f 417/3/5 415/3/5 414/3/5
f 418/3/5 417/3/5 416/3/5
f 419/3/5 415/3/5 417/3/5
f 419/3/5 417/3/5 418/3/5
f 424/4/5 421/4/5 420/4/5
f 425/4/5 421/4/5 424/4/5
f 426/3/5 423/3/5 422/3/5
f 427/4/5 424/4/5 423/4/5
f 427/3/5 423/3/5 426/3/5
f 428/4/5 424/4/5 427/4/5
f 429/3/5 425/3/5 424/3/5
f 429/4/5 424/4/5 428/4/5
f 430/3/5 425/3/5 429/3/5
f 431/4/6 432/4/6 433/4/6
f 433/4/6 432/4/6 434/4/6
f 435/4/6 436/4/6 438/4/6
f 438/4/6 436/4/6 439/4/6
f 437/4/6 438/4/6 440/4/6
f 438/3/6 439/3/6 441/3/6
f 440/4/6 438/4/6 441/4/6
f 441/3/6 439/3/6 442/3/6
f 443/3/6 444/3/6 445/3/6
f 445/3/6 444/3/6 446/3/6
f 447/4/6 448/4/6 450/4/6
f 448/3/6 449/3/6 451/3/6
f 450/4/6 448/4/6 451/4/6
f 451/3/6 449/3/6 452/3/6
f 452/3/6 449/3/6 453/3/6
f 453/3/6 454/3/6 455/3/6
f 452/3/6 453/3/6 455/3/6
f 455/3/6 454/3/6 456/3/6
f 457/3/6 458/3/6 461/3/6
f 459/3/6 460/3/6 464/3/6
f 457/3/6 461/3/6 465/3/6
f 461/4/6 462/4/6 466/4/6
f 465/3/6 461/3/6 466/3/6
f 466/4/6 462/4/6 467/4/6
f 463/3/6 464/3/6 470/3/6
f 464/3/6 460/3/6 471/3/6
f 470/3/6 464/3/6 471/3/6
f 467/4/6 468/4/6 472/4/6
f 468/3/6 469/3/6 473/3/6
f 472/4/6 468/4/6 473/4/6
f 469/4/6 470/4/6 474/4/6
f 473/3/6 469/3/6 474/3/6
f 474/4/6 470/4/6 475/4/6
f 476/3/6 477/3/6 478/3/6
f 478/3/6 477/3/6 479/3/6
f 480/4/6 481/4/6 484/4/6
f 484/4/6 481/4/6 485/4/6
f 482/4/6 483/4/6 487/4/6
f 485/3/6 486/3/6 488/3/6
f 484/3/6 485/3/6 488/3/6
f 488/3/6 486/3/6 489/3/6
f 486/4/6 487/4/6 490/4/6
f 487/4/6 483/4/6 490/4/6
f 490/4/6 483/4/6 491/4/6
f 489/3/6 486/3/6 492/3/6
f 492/3/6 486/3/6 493/3/6
f 486/4/6 490/4/6 494/4/6
f 494/4/6 490/4/6 495/4/6
f 493/3/6 486/3/6 496/3/6
f 486/4/6 494/4/6 497/4/6
f 496/3/6 486/3/6 497/3/6
f 497/4/6 494/4/6 498/4/6
f 499/4/6 500/4/6 502/4/6
f 502/4/6 500/4/6 503/4/6
f 501/4/6 502/4/6 506/4/6
f 503/4/6 504/4/6 506/4/6
f 502/4/6 503/4/6 506/4/6
f 505/4/6 506/4/6 507/4/6
f 506/4/6 504/4/6 508/4/6
f 507/4/6 506/4/6 508/4/6
