# MagicaVoxel @ Ephtracy

# group
o 

# material
mtllib bench.mtl
usemtl palette

# normals
vn -1 0 0
vn 1 0 0
vn 0 0 1
vn 0 0 -1
vn 0 -1 0
vn 0 1 0

# texcoords
vt 0.0488281 0.5
vt 0.0566406 0.5
vt 0.123047 0.5
vt 0.177734 0.5
vt 0.306641 0.5
vt 0.927734 0.5

# verts
v 0 0.4 -0.1
v 0 0.4 -0.2
v 0 0.4 -0.6
v 0 0.4 -0.7
v 0 0.5 -0.1
v 0 0.5 -0.2
v 0 0.5 -0.6
v 0 0.5 -0.7
v 0 0.7 -0.2
v 0 0.7 -0.6
v 0 0.8 -0.2
v 0 0.8 -0.6
v 0.1 0.5 -0.1
v 0.1 0.5 -0.2
v 0.1 0.5 -0.6
v 0.1 0.5 -0.7
v 0.1 0.7 -0.2
v 0.1 0.7 -0.6
v 0.1 0.8 -0.1
v 0.1 0.8 -0.2
v 0.1 0.8 -0.6
v 0.1 0.8 -0.7
v 0.2 0.7 0
v 0.2 0.7 -0.1
v 0.2 0.7 -0.7
v 0.2 0.7 -0.8
v 0.2 0.8 0
v 0.2 0.8 -0.1
v 0.2 0.8 -0.2
v 0.2 0.8 -0.7
v 0.2 0.8 -0.8
v 0.2 0.9 -0.1
v 0.2 0.9 -0.2
v 0.2 0.9 -0.6
v 0.2 0.9 -0.7
v 0.2 1 -0.6
v 0.2 1 -0.7
v 0.3 0.8 -0.5
v 0.3 0.8 -0.7
v 0.3 0.9 -0.5
v 0.3 0.9 -0.6
v 0.3 0.9 -0.7
v 0.4 0.8 -0.3
v 0.4 0.8 -0.4
v 0.4 0.9 -0.3
v 0.4 0.9 -0.4
v 0.5 0.4 -0.1
v 0.5 0.4 -0.2
v 0.5 0.4 -0.6
v 0.5 0.4 -0.7
v 0.5 0.5 -0.1
v 0.5 0.5 -0.2
v 0.5 0.5 -0.6
v 0.5 0.5 -0.7
v 0.5 0.8 -0.1
v 0.5 0.8 -0.3
v 0.5 0.8 -0.4
v 0.5 0.8 -0.5
v 0.5 0.9 -0.1
v 0.5 0.9 -0.3
v 0.5 0.9 -0.4
v 0.5 0.9 -0.5
v 0.6 0.5 -0.1
v 0.6 0.5 -0.2
v 0.6 0.5 -0.6
v 0.6 0.5 -0.7
v 0.6 0.7 -0.1
v 0.6 0.7 -0.2
v 0.6 0.7 -0.6
v 0.6 0.7 -0.7
v 0.2 0.5 -0.1
v 0.2 0.5 -0.2
v 0.2 0.5 -0.6
v 0.2 0.5 -0.7
v 0.2 0.7 -0.1
v 0.2 0.7 -0.2
v 0.2 0.7 -0.6
v 0.2 0.7 -0.7
v 0.3 0.4 -0.1
v 0.3 0.4 -0.2
v 0.3 0.4 -0.6
v 0.3 0.4 -0.7
v 0.3 0.5 -0.1
v 0.3 0.5 -0.2
v 0.3 0.5 -0.6
v 0.3 0.5 -0.7
v 0.4 0.8 -0.1
v 0.4 0.8 -0.2
v 0.4 0.8 -0.5
v 0.4 0.8 -0.6
v 0.4 0.8 -0.7
v 0.4 0.9 -0.1
v 0.4 0.9 -0.2
v 0.4 0.9 -0.5
v 0.4 0.9 -0.6
v 0.4 1 -0.6
v 0.4 1 -0.7
v 0.6 0.7 0
v 0.6 0.7 -0.1
v 0.6 0.7 -0.7
v 0.6 0.7 -0.8
v 0.6 0.8 0
v 0.6 0.8 -0.1
v 0.6 0.8 -0.3
v 0.6 0.8 -0.7
v 0.6 0.8 -0.8
v 0.6 0.9 -0.1
v 0.6 0.9 -0.3
v 0.7 0.5 -0.1
v 0.7 0.5 -0.2
v 0.7 0.5 -0.6
v 0.7 0.5 -0.7
v 0.7 0.7 -0.2
v 0.7 0.7 -0.6
v 0.7 0.8 -0.1
v 0.7 0.8 -0.2
v 0.7 0.8 -0.3
v 0.7 0.8 -0.5
v 0.7 0.8 -0.6
v 0.7 0.8 -0.7
v 0.7 0.9 -0.3
v 0.7 0.9 -0.5
v 0.8 0.4 -0.1
v 0.8 0.4 -0.2
v 0.8 0.4 -0.6
v 0.8 0.4 -0.7
v 0.8 0.5 -0.1
v 0.8 0.5 -0.2
v 0.8 0.5 -0.6
v 0.8 0.5 -0.7
v 0.8 0.7 -0.2
v 0.8 0.7 -0.6
v 0.8 0.8 -0.2
v 0.8 0.8 -0.6
v 0.2 0.7 0
v 0.2 0.8 0
v 0.6 0.7 0
v 0.6 0.8 0
v 0 0.4 -0.1
v 0 0.5 -0.1
v 0.1 0.5 -0.1
v 0.1 0.8 -0.1
v 0.2 0.5 -0.1
v 0.2 0.7 -0.1
v 0.2 0.8 -0.1
v 0.2 0.9 -0.1
v 0.3 0.4 -0.1
v 0.3 0.5 -0.1
v 0.4 0.8 -0.1
v 0.4 0.9 -0.1
v 0.5 0.4 -0.1
v 0.5 0.5 -0.1
v 0.5 0.8 -0.1
v 0.5 0.9 -0.1
v 0.6 0.5 -0.1
v 0.6 0.7 -0.1
v 0.6 0.8 -0.1
v 0.6 0.9 -0.1
v 0.7 0.5 -0.1
v 0.7 0.8 -0.1
v 0.8 0.4 -0.1
v 0.8 0.5 -0.1
v 0 0.7 -0.2
v 0 0.8 -0.2
v 0.1 0.7 -0.2
v 0.1 0.8 -0.2
v 0.7 0.7 -0.2
v 0.7 0.8 -0.2
v 0.8 0.7 -0.2
v 0.8 0.8 -0.2
v 0.4 0.8 -0.3
v 0.4 0.9 -0.3
v 0.5 0.8 -0.3
v 0.5 0.9 -0.3
v 0.6 0.8 -0.3
v 0.6 0.9 -0.3
v 0.7 0.8 -0.3
v 0.7 0.9 -0.3
v 0.3 0.8 -0.5
v 0.3 0.9 -0.5
v 0.4 0.8 -0.5
v 0.4 0.9 -0.5
v 0 0.4 -0.6
v 0 0.5 -0.6
v 0.1 0.5 -0.6
v 0.1 0.7 -0.6
v 0.2 0.5 -0.6
v 0.2 0.7 -0.6
v 0.2 0.9 -0.6
v 0.2 1 -0.6
v 0.3 0.4 -0.6
v 0.3 0.5 -0.6
v 0.3 0.9 -0.6
v 0.4 0.9 -0.6
v 0.4 1 -0.6
v 0.5 0.4 -0.6
v 0.5 0.5 -0.6
v 0.6 0.5 -0.6
v 0.6 0.7 -0.6
v 0.7 0.5 -0.6
v 0.7 0.7 -0.6
v 0.8 0.4 -0.6
v 0.8 0.5 -0.6
v 0 0.4 -0.2
v 0 0.5 -0.2
v 0.1 0.5 -0.2
v 0.1 0.7 -0.2
v 0.2 0.5 -0.2
v 0.2 0.7 -0.2
v 0.2 0.8 -0.2
v 0.2 0.9 -0.2
v 0.3 0.4 -0.2
v 0.3 0.5 -0.2
v 0.4 0.8 -0.2
v 0.4 0.9 -0.2
v 0.5 0.4 -0.2
v 0.5 0.5 -0.2
v 0.6 0.5 -0.2
v 0.6 0.7 -0.2
v 0.7 0.5 -0.2
v 0.7 0.7 -0.2
v 0.8 0.4 -0.2
v 0.8 0.5 -0.2
v 0.4 0.8 -0.4
v 0.4 0.9 -0.4
v 0.5 0.8 -0.4
v 0.5 0.9 -0.4
v 0.5 0.8 -0.5
v 0.5 0.9 -0.5
v 0.6 0.8 -0.5
v 0.7 0.8 -0.5
v 0.7 0.9 -0.5
v 0 0.7 -0.6
v 0 0.8 -0.6
v 0.1 0.7 -0.6
v 0.1 0.8 -0.6
v 0.7 0.7 -0.6
v 0.7 0.8 -0.6
v 0.8 0.7 -0.6
v 0.8 0.8 -0.6
v 0 0.4 -0.7
v 0 0.5 -0.7
v 0.1 0.5 -0.7
v 0.1 0.8 -0.7
v 0.2 0.5 -0.7
v 0.2 0.7 -0.7
v 0.2 0.8 -0.7
v 0.2 0.9 -0.7
v 0.2 1 -0.7
v 0.3 0.4 -0.7
v 0.3 0.5 -0.7
v 0.3 0.8 -0.7
v 0.3 0.9 -0.7
v 0.4 0.8 -0.7
v 0.4 1 -0.7
v 0.5 0.4 -0.7
v 0.5 0.5 -0.7
v 0.6 0.5 -0.7
v 0.6 0.7 -0.7
v 0.6 0.8 -0.7
v 0.7 0.5 -0.7
v 0.7 0.8 -0.7
v 0.8 0.4 -0.7
v 0.8 0.5 -0.7
v 0.2 0.7 -0.8
v 0.2 0.8 -0.8
v 0.6 0.7 -0.8
v 0.6 0.8 -0.8
v 0 0.4 -0.1
v 0.3 0.4 -0.1
v 0.5 0.4 -0.1
v 0.8 0.4 -0.1
v 0 0.4 -0.2
v 0.3 0.4 -0.2
v 0.5 0.4 -0.2
v 0.8 0.4 -0.2
v 0 0.4 -0.6
v 0.3 0.4 -0.6
v 0.5 0.4 -0.6
v 0.8 0.4 -0.6
v 0 0.4 -0.7
v 0.3 0.4 -0.7
v 0.5 0.4 -0.7
v 0.8 0.4 -0.7
v 0.2 0.7 0
v 0.6 0.7 0
v 0.2 0.7 -0.1
v 0.6 0.7 -0.1
v 0 0.7 -0.2
v 0.1 0.7 -0.2
v 0.2 0.7 -0.2
v 0.6 0.7 -0.2
v 0.7 0.7 -0.2
v 0.8 0.7 -0.2
v 0.1 0.7 -0.3
v 0.3 0.7 -0.3
v 0.4 0.7 -0.3
v 0.5 0.7 -0.3
v 0.6 0.7 -0.3
v 0.2 0.7 -0.4
v 0.3 0.7 -0.4
v 0.5 0.7 -0.4
v 0.6 0.7 -0.4
v 0.1 0.7 -0.5
v 0.2 0.7 -0.5
v 0.3 0.7 -0.5
v 0.4 0.7 -0.5
v 0.5 0.7 -0.5
v 0 0.7 -0.6
v 0.1 0.7 -0.6
v 0.2 0.7 -0.6
v 0.4 0.7 -0.6
v 0.5 0.7 -0.6
v 0.6 0.7 -0.6
v 0.7 0.7 -0.6
v 0.8 0.7 -0.6
v 0.2 0.7 -0.7
v 0.6 0.7 -0.7
v 0.2 0.7 -0.8
v 0.6 0.7 -0.8
v 0.2 0.9 -0.6
v 0.3 0.9 -0.6
v 0.2 0.9 -0.7
v 0.3 0.9 -0.7
v 0 0.5 -0.1
v 0.1 0.5 -0.1
v 0.2 0.5 -0.1
v 0.3 0.5 -0.1
v 0.5 0.5 -0.1
v 0.6 0.5 -0.1
v 0.7 0.5 -0.1
v 0.8 0.5 -0.1
v 0 0.5 -0.2
v 0.1 0.5 -0.2
v 0.2 0.5 -0.2
v 0.3 0.5 -0.2
v 0.5 0.5 -0.2
v 0.6 0.5 -0.2
v 0.7 0.5 -0.2
v 0.8 0.5 -0.2
v 0 0.5 -0.6
v 0.1 0.5 -0.6
v 0.2 0.5 -0.6
v 0.3 0.5 -0.6
v 0.5 0.5 -0.6
v 0.6 0.5 -0.6
v 0.7 0.5 -0.6
v 0.8 0.5 -0.6
v 0 0.5 -0.7
v 0.1 0.5 -0.7
v 0.2 0.5 -0.7
v 0.3 0.5 -0.7
v 0.5 0.5 -0.7
v 0.6 0.5 -0.7
v 0.7 0.5 -0.7
v 0.8 0.5 -0.7
v 0.2 0.8 0
v 0.6 0.8 0
v 0.1 0.8 -0.1
v 0.2 0.8 -0.1
v 0.4 0.8 -0.1
v 0.5 0.8 -0.1
v 0.6 0.8 -0.1
v 0.7 0.8 -0.1
v 0 0.8 -0.2
v 0.1 0.8 -0.2
v 0.2 0.8 -0.2
v 0.4 0.8 -0.2
v 0.7 0.8 -0.2
v 0.8 0.8 -0.2
v 0.1 0.8 -0.3
v 0.3 0.8 -0.3
v 0.4 0.8 -0.3
v 0.5 0.8 -0.3
v 0.6 0.8 -0.3
v 0.7 0.8 -0.3
v 0.2 0.8 -0.4
v 0.3 0.8 -0.4
v 0.4 0.8 -0.4
v 0.5 0.8 -0.4
v 0.1 0.8 -0.5
v 0.2 0.8 -0.5
v 0.3 0.8 -0.5
v 0.4 0.8 -0.5
v 0.5 0.8 -0.5
v 0.6 0.8 -0.5
v 0.7 0.8 -0.5
v 0 0.8 -0.6
v 0.1 0.8 -0.6
v 0.4 0.8 -0.6
v 0.5 0.8 -0.6
v 0.6 0.8 -0.6
v 0.7 0.8 -0.6
v 0.8 0.8 -0.6
v 0.1 0.8 -0.7
v 0.2 0.8 -0.7
v 0.3 0.8 -0.7
v 0.4 0.8 -0.7
v 0.6 0.8 -0.7
v 0.7 0.8 -0.7
v 0.2 0.8 -0.8
v 0.6 0.8 -0.8
v 0.2 0.9 -0.1
v 0.4 0.9 -0.1
v 0.5 0.9 -0.1
v 0.6 0.9 -0.1
v 0.2 0.9 -0.2
v 0.4 0.9 -0.2
v 0.4 0.9 -0.3
v 0.5 0.9 -0.3
v 0.6 0.9 -0.3
v 0.7 0.9 -0.3
v 0.4 0.9 -0.4
v 0.5 0.9 -0.4
v 0.6 0.9 -0.4
v 0.3 0.9 -0.5
v 0.4 0.9 -0.5
v 0.5 0.9 -0.5
v 0.7 0.9 -0.5
v 0.3 0.9 -0.6
v 0.4 0.9 -0.6
v 0.2 1 -0.6
v 0.4 1 -0.6
v 0.2 1 -0.7
v 0.4 1 -0.7

# faces
f 5/5/1 2/5/1 1/5/1
f 6/5/1 2/5/1 5/5/1
f 7/5/1 4/5/1 3/5/1
f 8/5/1 4/5/1 7/5/1
f 11/5/1 10/5/1 9/5/1
f 12/5/1 10/5/1 11/5/1
f 17/5/1 14/5/1 13/5/1
f 18/5/1 16/5/1 15/5/1
f 19/5/1 17/5/1 13/5/1
f 20/5/1 17/5/1 19/5/1
f 21/5/1 16/5/1 18/5/1
f 22/5/1 16/5/1 21/5/1
f 27/5/1 24/5/1 23/5/1
f 28/5/1 24/5/1 27/5/1
f 30/5/1 26/5/1 25/5/1
f 31/5/1 26/5/1 30/5/1
f 32/3/1 29/3/1 28/3/1
f 33/3/1 29/3/1 32/3/1
f 36/3/1 35/3/1 34/3/1
f 37/3/1 35/3/1 36/3/1
f 40/3/1 39/3/1 38/3/1
f 41/3/1 39/3/1 40/3/1
f 42/3/1 39/3/1 41/3/1
f 45/6/1 44/6/1 43/6/1
f 46/6/1 44/6/1 45/6/1
f 51/5/1 48/5/1 47/5/1
f 52/5/1 48/5/1 51/5/1
f 53/5/1 50/5/1 49/5/1
f 54/5/1 50/5/1 53/5/1
f 59/4/1 56/4/1 55/4/1
f 60/4/1 56/4/1 59/4/1
f 61/6/1 58/6/1 57/6/1
f 62/6/1 58/6/1 61/6/1
f 67/5/1 64/5/1 63/5/1
f 68/5/1 64/5/1 67/5/1
f 69/5/1 66/5/1 65/5/1
f 70/5/1 66/5/1 69/5/1
f 71/5/2 72/5/2 75/5/2
f 75/5/2 72/5/2 76/5/2
f 73/5/2 74/5/2 77/5/2
f 77/5/2 74/5/2 78/5/2
f 79/5/2 80/5/2 83/5/2
f 83/5/2 80/5/2 84/5/2
f 81/5/2 82/5/2 85/5/2
f 85/5/2 82/5/2 86/5/2
f 87/3/2 88/3/2 92/3/2
f 92/3/2 88/3/2 93/3/2
f 90/3/2 91/3/2 94/3/2
f 89/3/2 90/3/2 94/3/2
f 94/3/2 91/3/2 95/3/2
f 95/3/2 91/3/2 96/3/2
f 96/3/2 91/3/2 97/3/2
f 98/5/2 99/5/2 102/5/2
f 102/5/2 99/5/2 103/5/2
f 100/5/2 101/5/2 105/5/2
f 105/5/2 101/5/2 106/5/2
f 103/4/2 104/4/2 107/4/2
f 107/4/2 104/4/2 108/4/2
f 109/5/2 110/5/2 113/5/2
f 111/5/2 112/5/2 114/5/2
f 109/5/2 113/5/2 115/5/2
f 115/5/2 113/5/2 116/5/2
f 114/5/2 112/5/2 119/5/2
f 119/5/2 112/5/2 120/5/2
f 117/6/2 118/6/2 121/6/2
f 121/6/2 118/6/2 122/6/2
f 123/5/2 124/5/2 127/5/2
f 127/5/2 124/5/2 128/5/2
f 125/5/2 126/5/2 129/5/2
f 129/5/2 126/5/2 130/5/2
f 131/5/2 132/5/2 133/5/2
f 133/5/2 132/5/2 134/5/2
f 137/5/3 136/5/3 135/5/3
f 138/5/3 136/5/3 137/5/3
f 141/5/3 140/5/3 139/5/3
f 143/5/3 141/5/3 139/5/3
f 143/5/3 142/5/3 141/5/3
f 144/5/3 142/5/3 143/5/3
f 145/5/3 142/5/3 144/5/3
f 147/5/3 143/5/3 139/5/3
f 148/5/3 143/5/3 147/5/3
f 149/3/3 146/3/3 145/3/3
f 150/3/3 146/3/3 149/3/3
f 155/5/3 152/5/3 151/5/3
f 157/4/3 154/4/3 153/4/3
f 158/4/3 154/4/3 157/4/3
f 159/5/3 156/5/3 155/5/3
f 159/5/3 155/5/3 151/5/3
f 159/5/3 157/5/3 156/5/3
f 160/5/3 157/5/3 159/5/3
f 161/5/3 159/5/3 151/5/3
f 162/5/3 159/5/3 161/5/3
f 165/5/3 164/5/3 163/5/3
f 166/5/3 164/5/3 165/5/3
f 169/5/3 168/5/3 167/5/3
f 170/5/3 168/5/3 169/5/3
f 173/6/3 172/6/3 171/6/3
f 174/6/3 172/6/3 173/6/3
f 177/6/3 176/6/3 175/6/3
f 178/6/3 176/6/3 177/6/3
f 181/3/3 180/3/3 179/3/3
f 182/3/3 180/3/3 181/3/3
f 185/5/3 184/5/3 183/5/3
f 187/5/3 185/5/3 183/5/3
f 187/5/3 186/5/3 185/5/3
f 188/5/3 186/5/3 187/5/3
f 191/5/3 187/5/3 183/5/3
f 192/5/3 187/5/3 191/5/3
f 193/3/3 190/3/3 189/3/3
f 194/3/3 190/3/3 193/3/3
f 195/3/3 190/3/3 194/3/3
f 198/5/3 197/5/3 196/5/3
f 200/5/3 198/5/3 196/5/3
f 200/5/3 199/5/3 198/5/3
f 201/5/3 199/5/3 200/5/3
f 202/5/3 200/5/3 196/5/3
f 203/5/3 200/5/3 202/5/3
f 204/5/4 205/5/4 206/5/4
f 204/5/4 206/5/4 208/5/4
f 206/5/4 207/5/4 208/5/4
f 208/5/4 207/5/4 209/5/4
f 204/5/4 208/5/4 212/5/4
f 212/5/4 208/5/4 213/5/4
f 210/3/4 211/3/4 214/3/4
f 214/3/4 211/3/4 215/3/4
f 216/5/4 217/5/4 218/5/4
f 216/5/4 218/5/4 220/5/4
f 218/5/4 219/5/4 220/5/4
f 220/5/4 219/5/4 221/5/4
f 216/5/4 220/5/4 222/5/4
f 222/5/4 220/5/4 223/5/4
f 224/6/4 225/6/4 226/6/4
f 226/6/4 225/6/4 227/6/4
f 228/6/4 229/6/4 230/6/4
f 230/6/4 229/6/4 231/6/4
f 231/6/4 229/6/4 232/6/4
f 233/5/4 234/5/4 235/5/4
f 235/5/4 234/5/4 236/5/4
f 237/5/4 238/5/4 239/5/4
f 239/5/4 238/5/4 240/5/4
f 241/5/4 242/5/4 243/5/4
f 241/5/4 243/5/4 245/5/4
f 243/5/4 244/5/4 245/5/4
f 245/5/4 244/5/4 246/5/4
f 246/5/4 244/5/4 247/5/4
f 241/5/4 245/5/4 250/5/4
f 250/5/4 245/5/4 251/5/4
f 248/3/4 249/3/4 253/3/4
f 252/3/4 253/3/4 254/3/4
f 253/3/4 249/3/4 255/3/4
f 254/3/4 253/3/4 255/3/4
f 256/5/4 257/5/4 258/5/4
f 256/5/4 258/5/4 261/5/4
f 259/5/4 260/5/4 261/5/4
f 258/5/4 259/5/4 261/5/4
f 261/5/4 260/5/4 262/5/4
f 256/5/4 261/5/4 263/5/4
f 263/5/4 261/5/4 264/5/4
f 265/5/4 266/5/4 267/5/4
f 267/5/4 266/5/4 268/5/4
f 273/5/5 270/5/5 269/5/5
f 274/5/5 270/5/5 273/5/5
f 275/5/5 272/5/5 271/5/5
f 276/5/5 272/5/5 275/5/5
f 281/5/5 278/5/5 277/5/5
f 282/5/5 278/5/5 281/5/5
f 283/5/5 280/5/5 279/5/5
f 284/5/5 280/5/5 283/5/5
f 287/5/5 286/5/5 285/5/5
f 288/5/5 286/5/5 287/5/5
f 291/5/5 288/5/5 287/5/5
f 292/5/5 288/5/5 291/5/5
f 295/5/5 290/5/5 289/5/5
f 295/5/5 294/5/5 293/5/5
f 295/5/5 293/5/5 292/5/5
f 295/5/5 291/5/5 290/5/5
f 295/5/5 292/5/5 291/5/5
f 296/5/5 294/5/5 295/5/5
f 297/5/5 294/5/5 296/5/5
f 298/5/5 294/5/5 297/5/5
f 299/5/5 294/5/5 298/5/5
f 300/1/5 296/1/5 295/1/5
f 301/5/5 297/5/5 296/5/5
f 301/1/5 296/1/5 300/1/5
f 302/1/5 298/1/5 297/1/5
f 302/2/5 299/2/5 298/2/5
f 303/5/5 294/5/5 299/5/5
f 303/2/5 299/2/5 302/2/5
f 304/5/5 295/5/5 289/5/5
f 304/1/5 300/1/5 295/1/5
f 305/2/5 301/2/5 300/2/5
f 305/1/5 300/1/5 304/1/5
f 306/5/5 297/5/5 301/5/5
f 306/2/5 301/2/5 305/2/5
f 307/1/5 302/1/5 297/1/5
f 307/5/5 297/5/5 306/5/5
f 307/1/5 303/1/5 302/1/5
f 308/1/5 303/1/5 307/1/5
f 309/5/5 306/5/5 305/5/5
f 309/5/5 304/5/5 289/5/5
f 309/5/5 305/5/5 304/5/5
f 309/5/5 307/5/5 306/5/5
f 310/5/5 307/5/5 309/5/5
f 311/5/5 307/5/5 310/5/5
f 312/2/5 308/2/5 307/2/5
f 312/5/5 307/5/5 311/5/5
f 313/1/5 303/1/5 308/1/5
f 313/2/5 308/2/5 312/2/5
f 314/5/5 294/5/5 303/5/5
f 314/1/5 303/1/5 313/1/5
f 315/5/5 294/5/5 314/5/5
f 316/5/5 294/5/5 315/5/5
f 317/5/5 313/5/5 312/5/5
f 317/5/5 312/5/5 311/5/5
f 317/5/5 314/5/5 313/5/5
f 318/5/5 314/5/5 317/5/5
f 319/5/5 318/5/5 317/5/5
f 320/5/5 318/5/5 319/5/5
f 323/3/5 322/3/5 321/3/5
f 324/3/5 322/3/5 323/3/5
f 325/5/6 326/5/6 333/5/6
f 333/5/6 326/5/6 334/5/6
f 327/5/6 328/5/6 335/5/6
f 335/5/6 328/5/6 336/5/6
f 329/5/6 330/5/6 337/5/6
f 337/5/6 330/5/6 338/5/6
f 331/5/6 332/5/6 339/5/6
f 339/5/6 332/5/6 340/5/6
f 341/5/6 342/5/6 349/5/6
f 349/5/6 342/5/6 350/5/6
f 343/5/6 344/5/6 351/5/6
f 351/5/6 344/5/6 352/5/6
f 345/5/6 346/5/6 353/5/6
f 353/5/6 346/5/6 354/5/6
f 347/5/6 348/5/6 355/5/6
f 355/5/6 348/5/6 356/5/6
f 357/5/6 358/5/6 360/5/6
f 360/5/6 358/5/6 361/5/6
f 361/5/6 358/5/6 362/5/6
f 362/5/6 358/5/6 363/5/6
f 359/5/6 360/5/6 366/5/6
f 366/5/6 360/5/6 367/5/6
f 361/5/6 362/5/6 368/5/6
f 363/5/6 364/5/6 369/5/6
f 366/5/6 367/5/6 371/5/6
f 367/5/6 368/5/6 371/5/6
f 365/5/6 366/5/6 371/5/6
f 371/5/6 368/5/6 372/5/6
f 368/5/6 362/5/6 373/5/6
f 372/5/6 368/5/6 373/5/6
f 373/5/6 362/5/6 374/5/6
f 369/5/6 370/5/6 375/5/6
f 363/5/6 369/5/6 375/5/6
f 375/5/6 370/5/6 376/5/6
f 371/1/6 372/1/6 377/1/6
f 372/5/6 373/5/6 378/5/6
f 377/1/6 372/1/6 378/1/6
f 378/5/6 373/5/6 379/5/6
f 371/1/6 377/1/6 381/1/6
f 365/5/6 371/5/6 381/5/6
f 377/2/6 378/2/6 382/2/6
f 381/1/6 377/1/6 382/1/6
f 378/5/6 379/5/6 383/5/6
f 382/2/6 378/2/6 383/2/6
f 379/1/6 380/1/6 384/1/6
f 383/5/6 379/5/6 384/5/6
f 384/1/6 380/1/6 385/1/6
f 376/5/6 370/5/6 387/5/6
f 382/5/6 383/5/6 388/5/6
f 381/5/6 382/5/6 388/5/6
f 365/5/6 381/5/6 388/5/6
f 388/5/6 383/5/6 389/5/6
f 384/2/6 385/2/6 390/2/6
f 385/1/6 386/1/6 391/1/6
f 390/2/6 385/2/6 391/2/6
f 386/5/6 387/5/6 392/5/6
f 391/1/6 386/1/6 392/1/6
f 387/5/6 370/5/6 393/5/6
f 392/5/6 387/5/6 393/5/6
f 393/5/6 370/5/6 394/5/6
f 389/5/6 383/5/6 395/5/6
f 395/5/6 383/5/6 396/5/6
f 396/5/6 383/5/6 397/5/6
f 390/5/6 391/5/6 398/5/6
f 391/5/6 392/5/6 398/5/6
f 392/5/6 393/5/6 398/5/6
f 398/5/6 393/5/6 399/5/6
f 399/5/6 393/5/6 400/5/6
f 396/5/6 397/5/6 401/5/6
f 398/5/6 399/5/6 401/5/6
f 397/5/6 398/5/6 401/5/6
f 401/5/6 399/5/6 402/5/6
f 403/3/6 404/3/6 407/3/6
f 407/3/6 404/3/6 408/3/6
f 405/4/6 406/4/6 410/4/6
f 410/4/6 406/4/6 411/4/6
f 409/6/6 410/6/6 413/6/6
f 410/4/6 411/4/6 414/4/6
f 413/6/6 410/6/6 414/6/6
f 411/6/6 412/6/6 415/6/6
f 414/4/6 411/4/6 415/4/6
f 414/6/6 415/6/6 418/6/6
f 415/6/6 412/6/6 419/6/6
f 418/6/6 415/6/6 419/6/6
f 416/3/6 417/3/6 420/3/6
f 420/3/6 417/3/6 421/3/6
f 422/3/6 423/3/6 424/3/6
f 424/3/6 423/3/6 425/3/6
