# MagicaVoxel @ Ephtracy

# group
o 

# material
mtllib char_in_boat_base.mtl
usemtl palette

# normals
vn -1 0 0
vn 1 0 0
vn 0 0 1
vn 0 0 -1
vn 0 -1 0
vn 0 1 0

# texcoords
vt 0.306641 0.5
vt 0.330078 0.5
vt 0.935547 0.5

# verts
v 0 0.4 -0.2
v 0 0.4 -0.3
v 0 0.4 -0.4
v 0 0.4 -0.5
v 0 0.4 -0.6
v 0 0.5 -0.1
v 0 0.5 -0.2
v 0 0.5 -0.6
v 0 0.5 -0.7
v 0 0.6 -0.1
v 0 0.6 -0.2
v 0 0.6 -0.3
v 0 0.6 -0.4
v 0 0.6 -0.5
v 0 0.6 -0.6
v 0 0.6 -0.7
v 0.1 0.5 0
v 0.1 0.5 -0.1
v 0.1 0.5 -0.7
v 0.1 0.5 -0.8
v 0.1 0.6 0
v 0.1 0.6 -0.1
v 0.1 0.6 -0.7
v 0.1 0.6 -0.8
v 0.2 0.4 -0.1
v 0.2 0.4 -0.2
v 0.2 0.4 -0.6
v 0.2 0.4 -0.7
v 0.2 0.5 -0.1
v 0.2 0.5 -0.2
v 0.2 0.5 -0.6
v 0.2 0.5 -0.7
v 0.2 0.7 -0.3
v 0.2 0.7 -0.5
v 0.2 0.9 -0.3
v 0.2 0.9 -0.5
v 0.2 1 -0.2
v 0.2 1 -0.6
v 0.2 1.1 -0.2
v 0.2 1.1 -0.3
v 0.2 1.1 -0.5
v 0.2 1.1 -0.6
v 0.2 1.2 -0.3
v 0.2 1.2 -0.5
v 0.3 0.5 -0.2
v 0.3 0.5 -0.3
v 0.3 0.5 -0.4
v 0.3 0.5 -0.5
v 0.3 0.5 -0.6
v 0.3 0.6 -0.2
v 0.3 0.6 -0.6
v 0.3 0.7 0
v 0.3 0.7 -0.1
v 0.3 0.7 -0.3
v 0.3 0.7 -0.5
v 0.3 0.8 -0.1
v 0.3 0.8 -0.2
v 0.3 0.8 -0.6
v 0.3 0.8 -0.8
v 0.3 0.9 0
v 0.3 0.9 -0.3
v 0.3 0.9 -0.5
v 0.3 0.9 -0.8
v 0.3 1 -0.3
v 0.3 1 -0.5
v 0.3 1.1 -0.2
v 0.3 1.1 -0.3
v 0.3 1.1 -0.5
v 0.3 1.1 -0.6
v 0.3 1.2 -0.2
v 0.3 1.2 -0.3
v 0.3 1.2 -0.5
v 0.3 1.2 -0.6
v 0.7 0.5 -0.2
v 0.7 0.5 -0.3
v 0.7 0.5 -0.4
v 0.7 0.5 -0.5
v 0.7 0.5 -0.6
v 0.7 0.6 -0.2
v 0.7 0.6 -0.3
v 0.7 0.6 -0.4
v 0.7 0.6 -0.5
v 0.7 0.6 -0.6
v 0.1 0.5 -0.2
v 0.1 0.5 -0.3
v 0.1 0.5 -0.4
v 0.1 0.5 -0.5
v 0.1 0.5 -0.6
v 0.1 0.6 -0.2
v 0.1 0.6 -0.3
v 0.1 0.6 -0.4
v 0.1 0.6 -0.5
v 0.1 0.6 -0.6
v 0.4 0.5 -0.3
v 0.4 0.5 -0.4
v 0.4 0.5 -0.5
v 0.4 0.6 -0.2
v 0.4 0.6 -0.3
v 0.4 0.6 -0.5
v 0.4 0.6 -0.6
v 0.4 0.7 0
v 0.4 0.7 -0.1
v 0.4 0.7 -0.2
v 0.4 0.7 -0.3
v 0.4 0.7 -0.5
v 0.4 0.7 -0.6
v 0.4 0.8 -0.1
v 0.4 0.8 -0.2
v 0.4 0.8 -0.6
v 0.4 0.8 -0.7
v 0.4 0.9 0
v 0.4 0.9 -0.2
v 0.4 0.9 -0.3
v 0.4 0.9 -0.5
v 0.4 0.9 -0.6
v 0.4 0.9 -0.7
v 0.4 1 -0.3
v 0.4 1 -0.5
v 0.4 1.1 -0.2
v 0.4 1.1 -0.3
v 0.4 1.1 -0.5
v 0.4 1.1 -0.6
v 0.4 1.2 -0.2
v 0.4 1.2 -0.3
v 0.4 1.2 -0.5
v 0.4 1.2 -0.6
v 0.5 0.6 -0.3
v 0.5 0.6 -0.5
v 0.5 0.7 -0.2
v 0.5 0.7 -0.3
v 0.5 0.7 -0.5
v 0.5 0.7 -0.6
v 0.5 0.8 -0.7
v 0.5 0.8 -0.8
v 0.5 0.9 -0.2
v 0.5 0.9 -0.6
v 0.5 0.9 -0.7
v 0.5 0.9 -0.8
v 0.5 1 -0.2
v 0.5 1 -0.6
v 0.5 1.1 -0.2
v 0.5 1.1 -0.3
v 0.5 1.1 -0.5
v 0.5 1.1 -0.6
v 0.5 1.2 -0.3
v 0.5 1.2 -0.5
v 0.6 0.4 -0.1
v 0.6 0.4 -0.2
v 0.6 0.4 -0.6
v 0.6 0.4 -0.7
v 0.6 0.5 -0.1
v 0.6 0.5 -0.2
v 0.6 0.5 -0.3
v 0.6 0.5 -0.5
v 0.6 0.5 -0.6
v 0.6 0.5 -0.7
v 0.6 0.6 -0.2
v 0.6 0.6 -0.3
v 0.6 0.6 -0.5
v 0.6 0.6 -0.6
v 0.7 0.5 0
v 0.7 0.5 -0.1
v 0.7 0.5 -0.7
v 0.7 0.5 -0.8
v 0.7 0.6 0
v 0.7 0.6 -0.1
v 0.7 0.6 -0.7
v 0.7 0.6 -0.8
v 0.8 0.4 -0.2
v 0.8 0.4 -0.3
v 0.8 0.4 -0.4
v 0.8 0.4 -0.5
v 0.8 0.4 -0.6
v 0.8 0.5 -0.1
v 0.8 0.5 -0.2
v 0.8 0.5 -0.6
v 0.8 0.5 -0.7
v 0.8 0.6 -0.1
v 0.8 0.6 -0.2
v 0.8 0.6 -0.3
v 0.8 0.6 -0.4
v 0.8 0.6 -0.5
v 0.8 0.6 -0.6
v 0.8 0.6 -0.7
v 0.1 0.5 0
v 0.1 0.6 0
v 0.3 0.7 0
v 0.3 0.9 0
v 0.4 0.7 0
v 0.4 0.9 0
v 0.7 0.5 0
v 0.7 0.6 0
v 0 0.5 -0.1
v 0 0.6 -0.1
v 0.1 0.5 -0.1
v 0.1 0.6 -0.1
v 0.2 0.4 -0.1
v 0.2 0.5 -0.1
v 0.6 0.4 -0.1
v 0.6 0.5 -0.1
v 0.7 0.5 -0.1
v 0.7 0.6 -0.1
v 0.8 0.5 -0.1
v 0.8 0.6 -0.1
v 0 0.4 -0.2
v 0 0.5 -0.2
v 0.2 0.4 -0.2
v 0.2 0.5 -0.2
v 0.2 1 -0.2
v 0.2 1.1 -0.2
v 0.3 0.6 -0.2
v 0.3 0.8 -0.2
v 0.3 1.1 -0.2
v 0.3 1.2 -0.2
v 0.4 0.6 -0.2
v 0.4 0.7 -0.2
v 0.4 0.8 -0.2
v 0.4 0.9 -0.2
v 0.4 1.1 -0.2
v 0.4 1.2 -0.2
v 0.5 0.7 -0.2
v 0.5 0.9 -0.2
v 0.5 1 -0.2
v 0.5 1.1 -0.2
v 0.6 0.4 -0.2
v 0.6 0.5 -0.2
v 0.8 0.4 -0.2
v 0.8 0.5 -0.2
v 0.2 0.7 -0.3
v 0.2 0.9 -0.3
v 0.2 1.1 -0.3
v 0.2 1.2 -0.3
v 0.3 0.7 -0.3
v 0.3 0.9 -0.3
v 0.3 1 -0.3
v 0.3 1.1 -0.3
v 0.3 1.2 -0.3
v 0.4 0.6 -0.3
v 0.4 0.7 -0.3
v 0.4 0.9 -0.3
v 0.4 1 -0.3
v 0.4 1.1 -0.3
v 0.4 1.2 -0.3
v 0.5 0.6 -0.3
v 0.5 0.7 -0.3
v 0.5 1.1 -0.3
v 0.5 1.2 -0.3
v 0.4 0.5 -0.5
v 0.4 0.6 -0.5
v 0.5 0.6 -0.5
v 0.6 0.5 -0.5
v 0.6 0.6 -0.5
v 0.1 0.5 -0.6
v 0.1 0.6 -0.6
v 0.3 0.5 -0.6
v 0.3 0.6 -0.6
v 0.6 0.5 -0.6
v 0.6 0.6 -0.6
v 0.7 0.5 -0.6
v 0.7 0.6 -0.6
v 0.4 0.8 -0.7
v 0.4 0.9 -0.7
v 0.5 0.8 -0.7
v 0.5 0.9 -0.7
v 0.3 0.7 -0.1
v 0.3 0.8 -0.1
v 0.4 0.7 -0.1
v 0.4 0.8 -0.1
v 0.1 0.5 -0.2
v 0.1 0.6 -0.2
v 0.3 0.5 -0.2
v 0.3 0.6 -0.2
v 0.6 0.5 -0.2
v 0.6 0.6 -0.2
v 0.7 0.5 -0.2
v 0.7 0.6 -0.2
v 0.4 0.5 -0.3
v 0.4 0.6 -0.3
v 0.5 0.6 -0.3
v 0.6 0.5 -0.3
v 0.6 0.6 -0.3
v 0.2 0.7 -0.5
v 0.2 0.9 -0.5
v 0.2 1.1 -0.5
v 0.2 1.2 -0.5
v 0.3 0.7 -0.5
v 0.3 0.9 -0.5
v 0.3 1 -0.5
v 0.3 1.1 -0.5
v 0.3 1.2 -0.5
v 0.4 0.6 -0.5
v 0.4 0.7 -0.5
v 0.4 0.9 -0.5
v 0.4 1 -0.5
v 0.4 1.1 -0.5
v 0.4 1.2 -0.5
v 0.5 0.6 -0.5
v 0.5 0.7 -0.5
v 0.5 1.1 -0.5
v 0.5 1.2 -0.5
v 0 0.4 -0.6
v 0 0.5 -0.6
v 0.2 0.4 -0.6
v 0.2 0.5 -0.6
v 0.2 1 -0.6
v 0.2 1.1 -0.6
v 0.3 0.6 -0.6
v 0.3 0.8 -0.6
v 0.3 1.1 -0.6
v 0.3 1.2 -0.6
v 0.4 0.6 -0.6
v 0.4 0.7 -0.6
v 0.4 0.8 -0.6
v 0.4 0.9 -0.6
v 0.4 1.1 -0.6
v 0.4 1.2 -0.6
v 0.5 0.7 -0.6
v 0.5 0.9 -0.6
v 0.5 1 -0.6
v 0.5 1.1 -0.6
v 0.6 0.4 -0.6
v 0.6 0.5 -0.6
v 0.8 0.4 -0.6
v 0.8 0.5 -0.6
v 0 0.5 -0.7
v 0 0.6 -0.7
v 0.1 0.5 -0.7
v 0.1 0.6 -0.7
v 0.2 0.4 -0.7
v 0.2 0.5 -0.7
v 0.6 0.4 -0.7
v 0.6 0.5 -0.7
v 0.7 0.5 -0.7
v 0.7 0.6 -0.7
v 0.8 0.5 -0.7
v 0.8 0.6 -0.7
v 0.1 0.5 -0.8
v 0.1 0.6 -0.8
v 0.3 0.8 -0.8
v 0.3 0.9 -0.8
v 0.5 0.8 -0.8
v 0.5 0.9 -0.8
v 0.7 0.5 -0.8
v 0.7 0.6 -0.8
v 0.2 0.4 -0.1
v 0.6 0.4 -0.1
v 0 0.4 -0.2
v 0.2 0.4 -0.2
v 0.6 0.4 -0.2
v 0.8 0.4 -0.2
v 0 0.4 -0.3
v 0.8 0.4 -0.3
v 0 0.4 -0.4
v 0.8 0.4 -0.4
v 0 0.4 -0.5
v 0.8 0.4 -0.5
v 0 0.4 -0.6
v 0.2 0.4 -0.6
v 0.6 0.4 -0.6
v 0.8 0.4 -0.6
v 0.2 0.4 -0.7
v 0.6 0.4 -0.7
v 0.1 0.5 0
v 0.7 0.5 0
v 0 0.5 -0.1
v 0.1 0.5 -0.1
v 0.2 0.5 -0.1
v 0.6 0.5 -0.1
v 0.7 0.5 -0.1
v 0.8 0.5 -0.1
v 0 0.5 -0.2
v 0.2 0.5 -0.2
v 0.6 0.5 -0.2
v 0.8 0.5 -0.2
v 0 0.5 -0.6
v 0.2 0.5 -0.6
v 0.6 0.5 -0.6
v 0.8 0.5 -0.6
v 0 0.5 -0.7
v 0.1 0.5 -0.7
v 0.2 0.5 -0.7
v 0.6 0.5 -0.7
v 0.7 0.5 -0.7
v 0.8 0.5 -0.7
v 0.1 0.5 -0.8
v 0.7 0.5 -0.8
v 0.4 0.6 -0.3
v 0.5 0.6 -0.3
v 0.4 0.6 -0.5
v 0.5 0.6 -0.5
v 0.3 0.7 0
v 0.4 0.7 0
v 0.3 0.7 -0.1
v 0.4 0.7 -0.1
v 0.4 0.7 -0.2
v 0.5 0.7 -0.2
v 0.2 0.7 -0.3
v 0.3 0.7 -0.3
v 0.4 0.7 -0.3
v 0.5 0.7 -0.3
v 0.2 0.7 -0.5
v 0.3 0.7 -0.5
v 0.4 0.7 -0.5
v 0.5 0.7 -0.5
v 0.4 0.7 -0.6
v 0.5 0.7 -0.6
v 0.3 0.8 -0.1
v 0.4 0.8 -0.1
v 0.3 0.8 -0.2
v 0.4 0.8 -0.2
v 0.3 0.8 -0.6
v 0.4 0.8 -0.6
v 0.4 0.8 -0.7
v 0.5 0.8 -0.7
v 0.3 0.8 -0.8
v 0.5 0.8 -0.8
v 0.2 1 -0.2
v 0.5 1 -0.2
v 0.3 1 -0.3
v 0.4 1 -0.3
v 0.3 1 -0.5
v 0.4 1 -0.5
v 0.2 1 -0.6
v 0.5 1 -0.6
v 0.1 0.5 -0.2
v 0.3 0.5 -0.2
v 0.6 0.5 -0.2
v 0.7 0.5 -0.2
v 0.1 0.5 -0.3
v 0.3 0.5 -0.3
v 0.4 0.5 -0.3
v 0.6 0.5 -0.3
v 0.7 0.5 -0.3
v 0.1 0.5 -0.4
v 0.3 0.5 -0.4
v 0.4 0.5 -0.4
v 0.7 0.5 -0.4
v 0.1 0.5 -0.5
v 0.3 0.5 -0.5
v 0.4 0.5 -0.5
v 0.6 0.5 -0.5
v 0.7 0.5 -0.5
v 0.1 0.5 -0.6
v 0.3 0.5 -0.6
v 0.6 0.5 -0.6
v 0.7 0.5 -0.6
v 0.1 0.6 0
v 0.7 0.6 0
v 0 0.6 -0.1
v 0.1 0.6 -0.1
v 0.7 0.6 -0.1
v 0.8 0.6 -0.1
v 0 0.6 -0.2
v 0.1 0.6 -0.2
v 0.3 0.6 -0.2
v 0.4 0.6 -0.2
v 0.6 0.6 -0.2
v 0.7 0.6 -0.2
v 0.8 0.6 -0.2
v 0 0.6 -0.3
v 0.1 0.6 -0.3
v 0.4 0.6 -0.3
v 0.5 0.6 -0.3
v 0.6 0.6 -0.3
v 0.7 0.6 -0.3
v 0.8 0.6 -0.3
v 0 0.6 -0.4
v 0.1 0.6 -0.4
v 0.7 0.6 -0.4
v 0.8 0.6 -0.4
v 0 0.6 -0.5
v 0.1 0.6 -0.5
v 0.4 0.6 -0.5
v 0.5 0.6 -0.5
v 0.6 0.6 -0.5
v 0.7 0.6 -0.5
v 0.8 0.6 -0.5
v 0 0.6 -0.6
v 0.1 0.6 -0.6
v 0.3 0.6 -0.6
v 0.4 0.6 -0.6
v 0.6 0.6 -0.6
v 0.7 0.6 -0.6
v 0.8 0.6 -0.6
v 0 0.6 -0.7
v 0.1 0.6 -0.7
v 0.7 0.6 -0.7
v 0.8 0.6 -0.7
v 0.1 0.6 -0.8
v 0.7 0.6 -0.8
v 0.3 0.9 0
v 0.4 0.9 0
v 0.4 0.9 -0.2
v 0.5 0.9 -0.2
v 0.2 0.9 -0.3
v 0.3 0.9 -0.3
v 0.4 0.9 -0.3
v 0.2 0.9 -0.5
v 0.3 0.9 -0.5
v 0.4 0.9 -0.5
v 0.4 0.9 -0.6
v 0.5 0.9 -0.6
v 0.4 0.9 -0.7
v 0.5 0.9 -0.7
v 0.3 0.9 -0.8
v 0.5 0.9 -0.8
v 0.2 1.1 -0.2
v 0.3 1.1 -0.2
v 0.4 1.1 -0.2
v 0.5 1.1 -0.2
v 0.2 1.1 -0.3
v 0.3 1.1 -0.3
v 0.4 1.1 -0.3
v 0.5 1.1 -0.3
v 0.2 1.1 -0.5
v 0.3 1.1 -0.5
v 0.4 1.1 -0.5
v 0.5 1.1 -0.5
v 0.2 1.1 -0.6
v 0.3 1.1 -0.6
v 0.4 1.1 -0.6
v 0.5 1.1 -0.6
v 0.3 1.2 -0.2
v 0.4 1.2 -0.2
v 0.2 1.2 -0.3
v 0.3 1.2 -0.3
v 0.4 1.2 -0.3
v 0.5 1.2 -0.3
v 0.2 1.2 -0.5
v 0.3 1.2 -0.5
v 0.4 1.2 -0.5
v 0.5 1.2 -0.5
v 0.3 1.2 -0.6
v 0.4 1.2 -0.6

# faces
f 7/1/1 2/1/1 1/1/1
f 8/2/1 5/2/1 4/2/1
f 10/2/1 7/2/1 6/2/1
f 11/1/1 2/1/1 7/1/1
f 11/2/1 7/2/1 10/2/1
f 12/2/1 3/2/1 2/2/1
f 12/1/1 2/1/1 11/1/1
f 13/1/1 4/1/1 3/1/1
f 13/2/1 3/2/1 12/2/1
f 14/2/1 8/2/1 4/2/1
f 14/1/1 4/1/1 13/1/1
f 15/1/1 9/1/1 8/1/1
f 15/2/1 8/2/1 14/2/1
f 16/1/1 9/1/1 15/1/1
f 21/1/1 18/1/1 17/1/1
f 22/1/1 18/1/1 21/1/1
f 23/2/1 20/2/1 19/2/1
f 24/2/1 20/2/1 23/2/1
f 29/2/1 26/2/1 25/2/1
f 30/2/1 26/2/1 29/2/1
f 31/1/1 28/1/1 27/1/1
f 32/1/1 28/1/1 31/1/1
f 35/3/1 34/3/1 33/3/1
f 36/3/1 34/3/1 35/3/1
f 39/3/1 38/3/1 37/3/1
f 40/3/1 38/3/1 39/3/1
f 41/3/1 38/3/1 40/3/1
f 42/3/1 38/3/1 41/3/1
f 43/3/1 41/3/1 40/3/1
f 44/3/1 41/3/1 43/3/1
f 50/3/1 46/3/1 45/3/1
f 50/3/1 49/3/1 48/3/1
f 50/3/1 48/3/1 47/3/1
f 50/3/1 47/3/1 46/3/1
f 51/3/1 49/3/1 50/3/1
f 54/3/1 51/3/1 50/3/1
f 55/3/1 51/3/1 54/3/1
f 56/3/1 53/3/1 52/3/1
f 57/3/1 54/3/1 50/3/1
f 58/3/1 51/3/1 55/3/1
f 60/3/1 57/3/1 56/3/1
f 60/3/1 56/3/1 52/3/1
f 61/3/1 54/3/1 57/3/1
f 61/3/1 57/3/1 60/3/1
f 62/3/1 59/3/1 58/3/1
f 62/3/1 58/3/1 55/3/1
f 63/3/1 59/3/1 62/3/1
f 64/3/1 62/3/1 61/3/1
f 65/3/1 62/3/1 64/3/1
f 70/3/1 67/3/1 66/3/1
f 71/3/1 67/3/1 70/3/1
f 72/3/1 69/3/1 68/3/1
f 73/3/1 69/3/1 72/3/1
f 79/1/1 75/1/1 74/1/1
f 80/2/1 76/2/1 75/2/1
f 80/1/1 75/1/1 79/1/1
f 81/1/1 77/1/1 76/1/1
f 81/2/1 76/2/1 80/2/1
f 82/2/1 78/2/1 77/2/1
f 82/1/1 77/1/1 81/1/1
f 83/2/1 78/2/1 82/2/1
f 84/1/2 85/1/2 89/1/2
f 85/2/2 86/2/2 90/2/2
f 89/1/2 85/1/2 90/1/2
f 86/1/2 87/1/2 91/1/2
f 90/2/2 86/2/2 91/2/2
f 87/2/2 88/2/2 92/2/2
f 91/1/2 87/1/2 92/1/2
f 92/2/2 88/2/2 93/2/2
f 94/3/2 95/3/2 98/3/2
f 95/3/2 96/3/2 98/3/2
f 98/3/2 96/3/2 99/3/2
f 97/3/2 98/3/2 103/3/2
f 103/3/2 98/3/2 104/3/2
f 99/3/2 100/3/2 105/3/2
f 105/3/2 100/3/2 106/3/2
f 101/3/2 102/3/2 107/3/2
f 107/3/2 108/3/2 111/3/2
f 101/3/2 107/3/2 111/3/2
f 111/3/2 108/3/2 112/3/2
f 109/3/2 110/3/2 115/3/2
f 115/3/2 110/3/2 116/3/2
f 113/3/2 114/3/2 117/3/2
f 117/3/2 114/3/2 118/3/2
f 119/3/2 120/3/2 123/3/2
f 123/3/2 120/3/2 124/3/2
f 121/3/2 122/3/2 125/3/2
f 125/3/2 122/3/2 126/3/2
f 127/3/2 128/3/2 130/3/2
f 130/3/2 128/3/2 131/3/2
f 129/3/2 130/3/2 135/3/2
f 130/3/2 131/3/2 135/3/2
f 131/3/2 132/3/2 135/3/2
f 135/3/2 132/3/2 136/3/2
f 133/3/2 134/3/2 137/3/2
f 137/3/2 134/3/2 138/3/2
f 139/3/2 140/3/2 141/3/2
f 141/3/2 140/3/2 142/3/2
f 142/3/2 140/3/2 143/3/2
f 143/3/2 140/3/2 144/3/2
f 142/3/2 143/3/2 145/3/2
f 145/3/2 143/3/2 146/3/2
f 147/2/2 148/2/2 151/2/2
f 151/2/2 148/2/2 152/2/2
f 149/1/2 150/1/2 155/1/2
f 155/1/2 150/1/2 156/1/2
f 152/3/2 153/3/2 157/3/2
f 157/3/2 153/3/2 158/3/2
f 154/3/2 155/3/2 159/3/2
f 159/3/2 155/3/2 160/3/2
f 161/1/2 162/1/2 165/1/2
f 165/1/2 162/1/2 166/1/2
f 163/2/2 164/2/2 167/2/2
f 167/2/2 164/2/2 168/2/2
f 169/1/2 170/1/2 175/1/2
f 172/2/2 173/2/2 176/2/2
f 174/2/2 175/2/2 178/2/2
f 175/1/2 170/1/2 179/1/2
f 178/2/2 175/2/2 179/2/2
f 170/2/2 171/2/2 180/2/2
f 179/1/2 170/1/2 180/1/2
f 171/1/2 172/1/2 181/1/2
f 180/2/2 171/2/2 181/2/2
f 172/2/2 176/2/2 182/2/2
f 181/1/2 172/1/2 182/1/2
f 176/1/2 177/1/2 183/1/2
f 182/2/2 176/2/2 183/2/2
f 183/1/2 177/1/2 184/1/2
f 189/3/3 188/3/3 187/3/3
f 190/3/3 188/3/3 189/3/3
f 191/1/3 186/1/3 185/1/3
f 192/1/3 186/1/3 191/1/3
f 195/2/3 194/2/3 193/2/3
f 196/2/3 194/2/3 195/2/3
f 199/2/3 198/2/3 197/2/3
f 200/2/3 198/2/3 199/2/3
f 203/2/3 202/2/3 201/2/3
f 204/2/3 202/2/3 203/2/3
f 207/1/3 206/1/3 205/1/3
f 208/1/3 206/1/3 207/1/3
f 213/3/3 210/3/3 209/3/3
f 215/3/3 212/3/3 211/3/3
f 216/3/3 212/3/3 215/3/3
f 217/3/3 212/3/3 216/3/3
f 219/3/3 214/3/3 213/3/3
f 219/3/3 213/3/3 209/3/3
f 220/3/3 214/3/3 219/3/3
f 221/3/3 218/3/3 217/3/3
f 221/3/3 217/3/3 216/3/3
f 222/3/3 218/3/3 221/3/3
f 223/3/3 219/3/3 209/3/3
f 224/3/3 219/3/3 223/3/3
f 227/1/3 226/1/3 225/1/3
f 228/1/3 226/1/3 227/1/3
f 233/3/3 230/3/3 229/3/3
f 234/3/3 230/3/3 233/3/3
f 236/3/3 232/3/3 231/3/3
f 237/3/3 232/3/3 236/3/3
f 240/3/3 235/3/3 234/3/3
f 241/3/3 235/3/3 240/3/3
f 244/3/3 239/3/3 238/3/3
f 245/3/3 239/3/3 244/3/3
f 246/3/3 243/3/3 242/3/3
f 247/3/3 243/3/3 246/3/3
f 250/3/3 249/3/3 248/3/3
f 251/3/3 250/3/3 248/3/3
f 252/3/3 250/3/3 251/3/3
f 255/1/3 254/1/3 253/1/3
f 256/1/3 254/1/3 255/1/3
f 259/1/3 258/1/3 257/1/3
f 260/1/3 258/1/3 259/1/3
f 263/3/3 262/3/3 261/3/3
f 264/3/3 262/3/3 263/3/3
f 265/3/4 266/3/4 267/3/4
f 267/3/4 266/3/4 268/3/4
f 269/2/4 270/2/4 271/2/4
f 271/2/4 270/2/4 272/2/4
f 273/2/4 274/2/4 275/2/4
f 275/2/4 274/2/4 276/2/4
f 277/3/4 278/3/4 279/3/4
f 277/3/4 279/3/4 280/3/4
f 280/3/4 279/3/4 281/3/4
f 282/3/4 283/3/4 286/3/4
f 286/3/4 283/3/4 287/3/4
f 284/3/4 285/3/4 289/3/4
f 289/3/4 285/3/4 290/3/4
f 287/3/4 288/3/4 293/3/4
f 293/3/4 288/3/4 294/3/4
f 291/3/4 292/3/4 297/3/4
f 297/3/4 292/3/4 298/3/4
f 295/3/4 296/3/4 299/3/4
f 299/3/4 296/3/4 300/3/4
f 301/2/4 302/2/4 303/2/4
f 303/2/4 302/2/4 304/2/4
f 305/3/4 306/3/4 309/3/4
f 307/3/4 308/3/4 311/3/4
f 311/3/4 308/3/4 312/3/4
f 312/3/4 308/3/4 313/3/4
f 309/3/4 310/3/4 315/3/4
f 305/3/4 309/3/4 315/3/4
f 315/3/4 310/3/4 316/3/4
f 313/3/4 314/3/4 317/3/4
f 312/3/4 313/3/4 317/3/4
f 317/3/4 314/3/4 318/3/4
f 305/3/4 315/3/4 319/3/4
f 319/3/4 315/3/4 320/3/4
f 321/2/4 322/2/4 323/2/4
f 323/2/4 322/2/4 324/2/4
f 325/1/4 326/1/4 327/1/4
f 327/1/4 326/1/4 328/1/4
f 329/1/4 330/1/4 331/1/4
f 331/1/4 330/1/4 332/1/4
f 333/1/4 334/1/4 335/1/4
f 335/1/4 334/1/4 336/1/4
f 339/3/4 340/3/4 341/3/4
f 341/3/4 340/3/4 342/3/4
f 337/2/4 338/2/4 343/2/4
f 343/2/4 338/2/4 344/2/4
f 348/2/5 346/2/5 345/2/5
f 349/2/5 346/2/5 348/2/5
f 351/1/5 348/1/5 347/1/5
f 351/1/5 350/1/5 349/1/5
f 351/1/5 349/1/5 348/1/5
f 352/1/5 350/1/5 351/1/5
f 353/2/5 352/2/5 351/2/5
f 354/2/5 352/2/5 353/2/5
f 355/1/5 354/1/5 353/1/5
f 356/1/5 354/1/5 355/1/5
f 357/2/5 356/2/5 355/2/5
f 358/2/5 356/2/5 357/2/5
f 359/2/5 356/2/5 358/2/5
f 360/2/5 356/2/5 359/2/5
f 361/1/5 359/1/5 358/1/5
f 362/1/5 359/1/5 361/1/5
f 366/1/5 364/1/5 363/1/5
f 367/1/5 364/1/5 366/1/5
f 368/1/5 364/1/5 367/1/5
f 369/1/5 364/1/5 368/1/5
f 371/2/5 366/2/5 365/2/5
f 371/2/5 367/2/5 366/2/5
f 372/2/5 367/2/5 371/2/5
f 373/2/5 370/2/5 369/2/5
f 373/2/5 369/2/5 368/2/5
f 374/2/5 370/2/5 373/2/5
f 379/1/5 376/1/5 375/1/5
f 380/1/5 376/1/5 379/1/5
f 381/1/5 376/1/5 380/1/5
f 382/1/5 378/1/5 377/1/5
f 383/1/5 378/1/5 382/1/5
f 384/1/5 378/1/5 383/1/5
f 385/2/5 381/2/5 380/2/5
f 385/2/5 383/2/5 382/2/5
f 385/2/5 382/2/5 381/2/5
f 386/2/5 383/2/5 385/2/5
f 389/3/5 388/3/5 387/3/5
f 390/3/5 388/3/5 389/3/5
f 393/3/5 392/3/5 391/3/5
f 394/3/5 392/3/5 393/3/5
f 399/3/5 396/3/5 395/3/5
f 400/3/5 396/3/5 399/3/5
f 401/3/5 398/3/5 397/3/5
f 402/3/5 398/3/5 401/3/5
f 405/3/5 404/3/5 403/3/5
f 406/3/5 404/3/5 405/3/5
f 409/3/5 408/3/5 407/3/5
f 410/3/5 408/3/5 409/3/5
f 413/3/5 412/3/5 411/3/5
f 415/3/5 413/3/5 411/3/5
f 415/3/5 414/3/5 413/3/5
f 416/3/5 414/3/5 415/3/5
f 419/3/5 418/3/5 417/3/5
f 420/3/5 418/3/5 419/3/5
f 421/3/5 419/3/5 417/3/5
f 422/3/5 418/3/5 420/3/5
f 423/3/5 421/3/5 417/3/5
f 423/3/5 422/3/5 421/3/5
f 424/3/5 418/3/5 422/3/5
f 424/3/5 422/3/5 423/3/5
f 425/1/6 426/1/6 429/1/6
f 429/1/6 426/1/6 430/1/6
f 427/1/6 428/1/6 432/1/6
f 432/1/6 428/1/6 433/1/6
f 429/2/6 430/2/6 434/2/6
f 434/2/6 430/2/6 435/2/6
f 431/2/6 432/2/6 436/2/6
f 432/2/6 433/2/6 436/2/6
f 436/2/6 433/2/6 437/2/6
f 434/1/6 435/1/6 438/1/6
f 438/1/6 435/1/6 439/1/6
f 436/1/6 437/1/6 440/1/6
f 440/1/6 437/1/6 441/1/6
f 441/1/6 437/1/6 442/1/6
f 438/2/6 439/2/6 443/2/6
f 443/2/6 439/2/6 444/2/6
f 441/2/6 442/2/6 445/2/6
f 445/2/6 442/2/6 446/2/6
f 447/1/6 448/1/6 450/1/6
f 450/1/6 448/1/6 451/1/6
f 449/2/6 450/2/6 453/2/6
f 451/2/6 452/2/6 453/2/6
f 450/2/6 451/2/6 453/2/6
f 453/2/6 452/2/6 454/2/6
f 454/2/6 452/2/6 455/2/6
f 455/2/6 452/2/6 456/2/6
f 456/2/6 452/2/6 457/2/6
f 457/2/6 452/2/6 458/2/6
f 458/2/6 452/2/6 459/2/6
f 453/1/6 454/1/6 460/1/6
f 460/1/6 454/1/6 461/1/6
f 456/3/6 457/3/6 462/3/6
f 462/3/6 457/3/6 463/3/6
f 463/3/6 457/3/6 464/3/6
f 458/1/6 459/1/6 465/1/6
f 465/1/6 459/1/6 466/1/6
f 460/2/6 461/2/6 467/2/6
f 467/2/6 461/2/6 468/2/6
f 465/2/6 466/2/6 469/2/6
f 469/2/6 466/2/6 470/2/6
f 467/1/6 468/1/6 471/1/6
f 471/1/6 468/1/6 472/1/6
f 469/1/6 470/1/6 476/1/6
f 476/1/6 470/1/6 477/1/6
f 471/2/6 472/2/6 478/2/6
f 478/2/6 472/2/6 479/2/6
f 474/3/6 475/3/6 481/3/6
f 473/3/6 474/3/6 481/3/6
f 481/3/6 475/3/6 482/3/6
f 476/2/6 477/2/6 483/2/6
f 483/2/6 477/2/6 484/2/6
f 479/1/6 480/1/6 485/1/6
f 478/1/6 479/1/6 485/1/6
f 483/1/6 484/1/6 485/1/6
f 482/1/6 483/1/6 485/1/6
f 481/1/6 482/1/6 485/1/6
f 480/1/6 481/1/6 485/1/6
f 485/1/6 484/1/6 486/1/6
f 486/1/6 484/1/6 487/1/6
f 487/1/6 484/1/6 488/1/6
f 486/2/6 487/2/6 489/2/6
f 489/2/6 487/2/6 490/2/6
f 491/3/6 492/3/6 493/3/6
f 491/3/6 493/3/6 496/3/6
f 493/3/6 494/3/6 496/3/6
f 496/3/6 494/3/6 497/3/6
f 495/3/6 496/3/6 498/3/6
f 498/3/6 496/3/6 499/3/6
f 497/3/6 494/3/6 500/3/6
f 499/3/6 500/3/6 501/3/6
f 500/3/6 494/3/6 501/3/6
f 501/3/6 494/3/6 502/3/6
f 499/3/6 501/3/6 503/3/6
f 499/3/6 503/3/6 505/3/6
f 503/3/6 504/3/6 505/3/6
f 505/3/6 504/3/6 506/3/6
f 507/3/6 508/3/6 511/3/6
f 511/3/6 508/3/6 512/3/6
f 509/3/6 510/3/6 513/3/6
f 513/3/6 510/3/6 514/3/6
f 515/3/6 516/3/6 519/3/6
f 519/3/6 516/3/6 520/3/6
f 517/3/6 518/3/6 521/3/6
f 521/3/6 518/3/6 522/3/6
f 523/3/6 524/3/6 526/3/6
f 526/3/6 524/3/6 527/3/6
f 525/3/6 526/3/6 529/3/6
f 527/3/6 528/3/6 529/3/6
f 526/3/6 527/3/6 529/3/6
f 529/3/6 528/3/6 530/3/6
f 530/3/6 528/3/6 531/3/6
f 531/3/6 528/3/6 532/3/6
f 530/3/6 531/3/6 533/3/6
f 533/3/6 531/3/6 534/3/6
