# MagicaVoxel @ Ephtracy

# group
o 

# material
mtllib stone_8x8_v2.mtl
usemtl palette

# normals
vn -1 0 0
vn 1 0 0
vn 0 0 1
vn 0 0 -1
vn 0 -1 0
vn 0 1 0

# texcoords
vt 0.556641 0.5
vt 0.982422 0.5
vt 0.986328 0.5

# verts
v 0.2 2 -0.1
v 0.2 2 -0.6
v 0.2 2.1 -0.1
v 0.2 2.1 -0.2
v 0.2 2.2 -0.2
v 0.2 2.2 -0.6
v 0.3 2.1 -0.1
v 0.3 2.1 -0.2
v 0.3 2.2 -0.1
v 0.3 2.2 -0.2
v 0.3 2.2 -0.6
v 0.3 2.3 -0.2
v 0.3 2.3 -0.3
v 0.3 2.3 -0.5
v 0.3 2.3 -0.6
v 0.3 2.4 -0.3
v 0.3 2.4 -0.5
v 0.4 2.2 -0.6
v 0.4 2.2 -0.7
v 0.4 2.3 -0.5
v 0.4 2.3 -0.6
v 0.4 2.3 -0.7
v 0.4 2.4 -0.5
v 0.4 2.4 -0.6
v 0.5 2 -0.6
v 0.5 2 -0.7
v 0.5 2.2 -0.6
v 0.5 2.2 -0.7
v 0.5 2.3 -0.5
v 0.5 2.3 -0.6
v 0.5 2.4 -0.5
v 0.5 2.4 -0.6
v 0.6 2.1 -0.1
v 0.6 2.1 -0.3
v 0.6 2.1 -0.4
v 0.6 2.1 -0.6
v 0.6 2.2 -0.1
v 0.6 2.2 -0.2
v 0.6 2.2 -0.3
v 0.6 2.2 -0.6
v 0.6 2.2 -0.7
v 0.6 2.3 -0.2
v 0.6 2.3 -0.3
v 0.6 2.3 -0.4
v 0.6 2.3 -0.5
v 0.6 2.3 -0.6
v 0.6 2.3 -0.7
v 0.6 2.4 -0.3
v 0.6 2.4 -0.5
v 0.7 2 -0.1
v 0.7 2 -0.6
v 0.7 2 -0.7
v 0.7 2.1 -0.1
v 0.7 2.1 -0.6
v 0.7 2.2 -0.6
v 0.7 2.2 -0.7
v 0.2 2 -0.1
v 0.2 2.1 -0.1
v 0.3 2.1 -0.1
v 0.3 2.2 -0.1
v 0.6 2.1 -0.1
v 0.6 2.2 -0.1
v 0.7 2 -0.1
v 0.7 2.1 -0.1
v 0.2 2.1 -0.2
v 0.2 2.2 -0.2
v 0.3 2.1 -0.2
v 0.3 2.2 -0.2
v 0.3 2.3 -0.2
v 0.4 2.2 -0.2
v 0.4 2.3 -0.2
v 0.5 2.2 -0.2
v 0.5 2.3 -0.2
v 0.6 2.2 -0.2
v 0.6 2.3 -0.2
v 0.3 2.3 -0.3
v 0.3 2.4 -0.3
v 0.4 2.3 -0.3
v 0.4 2.4 -0.3
v 0.5 2.3 -0.3
v 0.5 2.4 -0.3
v 0.6 2.3 -0.3
v 0.6 2.4 -0.3
v 0.6 2.1 -0.6
v 0.6 2.2 -0.6
v 0.7 2.1 -0.6
v 0.7 2.2 -0.6
v 0.3 2.3 -0.5
v 0.3 2.4 -0.5
v 0.4 2.3 -0.5
v 0.4 2.4 -0.5
v 0.5 2.3 -0.5
v 0.5 2.4 -0.5
v 0.6 2.3 -0.5
v 0.6 2.4 -0.5
v 0.2 2 -0.6
v 0.2 2.2 -0.6
v 0.3 2.2 -0.6
v 0.3 2.3 -0.6
v 0.4 2.2 -0.6
v 0.4 2.3 -0.6
v 0.4 2.4 -0.6
v 0.5 2 -0.6
v 0.5 2.2 -0.6
v 0.5 2.3 -0.6
v 0.5 2.4 -0.6
v 0.4 2.2 -0.7
v 0.4 2.3 -0.7
v 0.5 2 -0.7
v 0.5 2.2 -0.7
v 0.5 2.3 -0.7
v 0.6 2.2 -0.7
v 0.6 2.3 -0.7
v 0.7 2 -0.7
v 0.7 2.2 -0.7
v 0.2 2 -0.1
v 0.7 2 -0.1
v 0.2 2 -0.6
v 0.5 2 -0.6
v 0.7 2 -0.6
v 0.5 2 -0.7
v 0.7 2 -0.7
v 0.4 2.2 -0.6
v 0.5 2.2 -0.6
v 0.4 2.2 -0.7
v 0.5 2.2 -0.7
v 0.2 2.1 -0.1
v 0.3 2.1 -0.1
v 0.6 2.1 -0.1
v 0.7 2.1 -0.1
v 0.2 2.1 -0.2
v 0.3 2.1 -0.2
v 0.6 2.1 -0.3
v 0.6 2.1 -0.4
v 0.6 2.1 -0.6
v 0.7 2.1 -0.6
v 0.3 2.2 -0.1
v 0.6 2.2 -0.1
v 0.2 2.2 -0.2
v 0.3 2.2 -0.2
v 0.4 2.2 -0.2
v 0.5 2.2 -0.2
v 0.6 2.2 -0.2
v 0.2 2.2 -0.6
v 0.3 2.2 -0.6
v 0.6 2.2 -0.6
v 0.7 2.2 -0.6
v 0.6 2.2 -0.7
v 0.7 2.2 -0.7
v 0.3 2.3 -0.2
v 0.4 2.3 -0.2
v 0.5 2.3 -0.2
v 0.6 2.3 -0.2
v 0.3 2.3 -0.3
v 0.4 2.3 -0.3
v 0.5 2.3 -0.3
v 0.6 2.3 -0.3
v 0.3 2.3 -0.5
v 0.4 2.3 -0.5
v 0.5 2.3 -0.5
v 0.6 2.3 -0.5
v 0.3 2.3 -0.6
v 0.4 2.3 -0.6
v 0.5 2.3 -0.6
v 0.6 2.3 -0.6
v 0.4 2.3 -0.7
v 0.5 2.3 -0.7
v 0.6 2.3 -0.7
v 0.3 2.4 -0.3
v 0.4 2.4 -0.3
v 0.5 2.4 -0.3
v 0.6 2.4 -0.3
v 0.3 2.4 -0.5
v 0.4 2.4 -0.5
v 0.5 2.4 -0.5
v 0.6 2.4 -0.5
v 0.4 2.4 -0.6
v 0.5 2.4 -0.6

# faces
f 3/2/1 2/2/1 1/2/1
f 4/2/1 2/2/1 3/2/1
f 5/2/1 2/2/1 4/2/1
f 6/2/1 2/2/1 5/2/1
f 9/2/1 8/2/1 7/2/1
f 10/2/1 8/2/1 9/2/1
f 12/1/1 11/1/1 10/1/1
f 13/1/1 11/1/1 12/1/1
f 14/1/1 11/1/1 13/1/1
f 15/1/1 11/1/1 14/1/1
f 16/1/1 14/1/1 13/1/1
f 17/1/1 14/1/1 16/1/1
f 21/1/1 19/1/1 18/1/1
f 22/1/1 19/1/1 21/1/1
f 23/2/1 21/2/1 20/2/1
f 24/2/1 21/2/1 23/2/1
f 27/3/1 26/3/1 25/3/1
f 28/3/1 26/3/1 27/3/1
f 29/2/2 30/2/2 31/2/2
f 31/2/2 30/2/2 32/2/2
f 33/2/2 34/2/2 37/2/2
f 37/2/2 34/2/2 38/2/2
f 34/1/2 35/1/2 39/1/2
f 38/2/2 34/2/2 39/2/2
f 35/2/2 36/2/2 40/2/2
f 38/1/2 39/1/2 42/1/2
f 39/1/2 35/1/2 43/1/2
f 42/1/2 39/1/2 43/1/2
f 35/2/2 40/2/2 44/2/2
f 43/1/2 35/1/2 44/1/2
f 44/2/2 40/2/2 45/2/2
f 40/3/2 41/3/2 46/3/2
f 45/2/2 40/2/2 46/2/2
f 46/3/2 41/3/2 47/3/2
f 44/1/2 45/1/2 48/1/2
f 43/1/2 44/1/2 48/1/2
f 48/1/2 45/1/2 49/1/2
f 50/2/2 51/2/2 53/2/2
f 51/3/2 52/3/2 54/3/2
f 53/2/2 51/2/2 54/2/2
f 54/3/2 52/3/2 55/3/2
f 55/3/2 52/3/2 56/3/2
f 59/2/3 58/2/3 57/2/3
f 61/2/3 59/2/3 57/2/3
f 61/2/3 60/2/3 59/2/3
f 62/2/3 60/2/3 61/2/3
f 63/2/3 61/2/3 57/2/3
f 64/2/3 61/2/3 63/2/3
f 67/2/3 66/2/3 65/2/3
f 68/2/3 66/2/3 67/2/3
f 70/1/3 69/1/3 68/1/3
f 71/1/3 69/1/3 70/1/3
f 72/2/3 71/2/3 70/2/3
f 73/2/3 71/2/3 72/2/3
f 74/1/3 73/1/3 72/1/3
f 75/1/3 73/1/3 74/1/3
f 78/1/3 77/1/3 76/1/3
f 79/1/3 77/1/3 78/1/3
f 80/2/3 79/2/3 78/2/3
f 81/2/3 79/2/3 80/2/3
f 82/1/3 81/1/3 80/1/3
f 83/1/3 81/1/3 82/1/3
f 86/3/3 85/3/3 84/3/3
f 87/3/3 85/3/3 86/3/3
f 88/1/4 89/1/4 90/1/4
f 90/1/4 89/1/4 91/1/4
f 92/1/4 93/1/4 94/1/4
f 94/1/4 93/1/4 95/1/4
f 96/2/4 97/2/4 98/2/4
f 96/2/4 98/2/4 100/2/4
f 98/1/4 99/1/4 100/1/4
f 100/1/4 99/1/4 101/1/4
f 96/2/4 100/2/4 103/2/4
f 103/2/4 100/2/4 104/2/4
f 101/2/4 102/2/4 105/2/4
f 105/2/4 102/2/4 106/2/4
f 107/1/4 108/1/4 110/1/4
f 110/1/4 108/1/4 111/1/4
f 109/3/4 110/3/4 112/3/4
f 110/3/4 111/3/4 112/3/4
f 112/3/4 111/3/4 113/3/4
f 109/3/4 112/3/4 114/3/4
f 114/3/4 112/3/4 115/3/4
f 118/2/5 117/2/5 116/2/5
f 119/2/5 117/2/5 118/2/5
f 120/2/5 117/2/5 119/2/5
f 121/3/5 120/3/5 119/3/5
f 122/3/5 120/3/5 121/3/5
f 125/1/5 124/1/5 123/1/5
f 126/1/5 124/1/5 125/1/5
f 127/2/6 128/2/6 131/2/6
f 131/2/6 128/2/6 132/2/6
f 129/2/6 130/2/6 133/2/6
f 133/2/6 130/2/6 134/2/6
f 134/2/6 130/2/6 135/2/6
f 135/2/6 130/2/6 136/2/6
f 137/2/6 138/2/6 140/2/6
f 140/2/6 138/2/6 141/2/6
f 141/2/6 138/2/6 142/2/6
f 142/2/6 138/2/6 143/2/6
f 139/2/6 140/2/6 144/2/6
f 144/2/6 140/2/6 145/2/6
f 146/3/6 147/3/6 148/3/6
f 148/3/6 147/3/6 149/3/6
f 150/1/6 151/1/6 154/1/6
f 151/2/6 152/2/6 155/2/6
f 154/1/6 151/1/6 155/1/6
f 152/1/6 153/1/6 156/1/6
f 155/2/6 152/2/6 156/2/6
f 156/1/6 153/1/6 157/1/6
f 158/1/6 159/1/6 162/1/6
f 162/1/6 159/1/6 163/1/6
f 160/2/6 161/2/6 164/2/6
f 164/2/6 161/2/6 165/2/6
f 163/1/6 164/1/6 166/1/6
f 164/3/6 165/3/6 167/3/6
f 166/1/6 164/1/6 167/1/6
f 167/3/6 165/3/6 168/3/6
f 169/1/6 170/1/6 173/1/6
f 170/2/6 171/2/6 174/2/6
f 173/1/6 170/1/6 174/1/6
f 171/1/6 172/1/6 175/1/6
f 174/2/6 171/2/6 175/2/6
f 175/1/6 172/1/6 176/1/6
f 174/2/6 175/2/6 177/2/6
f 177/2/6 175/2/6 178/2/6
